SplineFontDB: 3.0
FontName: monofurx-italic
FullName: monofurx italic
FamilyName: monofurx
Weight: Regular
Copyright: a mod to monofur italic (c) 2000 tobias b ko:hler (unci@tigerden.com)
Version: 4.0.2 2019-07-16
ItalicAngle: -15
UnderlinePosition: -125
UnderlineWidth: 60
Ascent: 800
Descent: 200
InvalidEm: 0
sfntRevision: 0x00010000
LayerCount: 2
Layer: 0 1 "Back" 1
Layer: 1 1 "Fore" 0
XUID: [1021 173 -1185058930 17384]
StyleMap: 0x0001
FSType: 0
OS2Version: 0
OS2_WeightWidthSlopeOnly: 0
OS2_UseTypoMetrics: 0
CreationTime: 957547573
ModificationTime: 1563467887
PfmFamily: 49
TTFWeight: 400
TTFWidth: 5
LineGap: 0
VLineGap: 0
Panose: 2 15 4 9 2 2 3 9 2 4
OS2TypoAscent: 800
OS2TypoAOffset: 0
OS2TypoDescent: -200
OS2TypoDOffset: 0
OS2TypoLinegap: 0
OS2WinAscent: 800
OS2WinAOffset: 0
OS2WinDescent: 200
OS2WinDOffset: 0
HheadAscent: 800
HheadAOffset: 0
HheadDescent: -200
HheadDOffset: 0
OS2SubXSize: 700
OS2SubYSize: 650
OS2SubXOff: 0
OS2SubYOff: 143
OS2SupXSize: 700
OS2SupYSize: 650
OS2SupXOff: 0
OS2SupYOff: 453
OS2StrikeYSize: 50
OS2StrikeYPos: 259
OS2Vendor: 'unci'
OS2CodePages: a000009f.dfd70000
OS2UnicodeRanges: 00000000.00000000.00000000.00000000
Lookup: 258 0 0 "'kern' Horizontal Kerning in Latin lookup 0" { "'kern' Horizontal Kerning in Latin lookup 0 subtable"  } ['kern' ('DFLT' <'dflt' > 'latn' <'dflt' > ) ]
MarkAttachClasses: 1
DEI: 91125
TtTable: prep
NPUSHB
 35
 20
 20
 19
 19
 18
 18
 17
 17
 16
 16
 15
 15
 14
 14
 13
 13
 12
 12
 11
 11
 10
 10
 9
 9
 8
 8
 3
 3
 2
 2
 1
 1
 0
 0
 1
SCANTYPE
PUSHW_1
 511
SCANCTRL
RCVT
ROUND[Grey]
WCVTP
RCVT
ROUND[Grey]
WCVTP
RCVT
ROUND[Grey]
WCVTP
RCVT
ROUND[Grey]
WCVTP
RCVT
ROUND[Grey]
WCVTP
RCVT
ROUND[Grey]
WCVTP
RCVT
ROUND[Grey]
WCVTP
RCVT
ROUND[Grey]
WCVTP
RCVT
ROUND[Grey]
WCVTP
RCVT
ROUND[Grey]
WCVTP
RCVT
ROUND[Grey]
WCVTP
RCVT
ROUND[Grey]
WCVTP
RCVT
ROUND[Grey]
WCVTP
RCVT
ROUND[Grey]
WCVTP
RCVT
ROUND[Grey]
WCVTP
RCVT
ROUND[Grey]
WCVTP
RCVT
ROUND[Grey]
WCVTP
PUSHB_4
 5
 4
 70
 0
CALL
PUSHB_4
 7
 6
 70
 0
CALL

StartChar: exclam
Encoding: 33 33 1
Width: 500
GlyphClass: 2
Flags: W
LayerCount: 2
Fore
SplineSet
441 595 m 0,0,1
 441 590 441 590 440 586 c 2,2,-1
 330 180 l 2,3,4
 324 157 324 157 301 156 c 0,5,6
 269 156 269 156 269 186 c 0,7,8
 269 191 269 191 270 195 c 2,9,-1
 379 602 l 2,10,11
 385 625 385 625 408 625 c 0,12,13
 441 625 441 625 441 595 c 0,0,1
311 51 m 0,14,15
 311 30 311 30 295 15 c 128,-1,16
 279 0 279 0 258 0 c 0,17,18
 239 0 239 0 227 12.5 c 128,-1,19
 215 25 215 25 215 44 c 0,20,21
 215 65 215 65 230.5 79.5 c 128,-1,22
 246 94 246 94 267 94 c 0,23,24
 285 94 285 94 298 81.5 c 128,-1,25
 311 69 311 69 311 51 c 0,14,15
EndSplineSet
Validated: 1
EndChar

StartChar: quotedbl
Encoding: 34 34 2
Width: 500
GlyphClass: 2
Flags: W
LayerCount: 2
Fore
SplineSet
597 514 m 0,0,1
 594 506 594 506 585 500 c 2,2,-1
 429 395 l 2,3,4
 415 385 415 385 400 392 c 0,5,6
 388 397 388 397 382.5 409 c 128,-1,7
 377 421 377 421 382 433 c 0,8,9
 385 442 385 442 394 448 c 2,10,-1
 550 552 l 2,11,12
 564 562 564 562 579 555 c 0,13,14
 591 550 591 550 596.5 538 c 128,-1,15
 602 526 602 526 597 514 c 0,0,1
399 519 m 0,16,17
 396 511 396 511 387 505 c 2,18,-1
 230 400 l 2,19,20
 216 390 216 390 202 397 c 0,21,22
 190 402 190 402 184.5 414 c 128,-1,23
 179 426 179 426 184 438 c 0,24,25
 187 446 187 446 196 452 c 2,26,-1
 352 557 l 2,27,28
 366 567 366 567 381 560 c 0,29,30
 393 555 393 555 398.5 543 c 128,-1,31
 404 531 404 531 399 519 c 0,16,17
EndSplineSet
Validated: 1
EndChar

StartChar: numbersign
Encoding: 35 35 3
Width: 500
GlyphClass: 2
Flags: W
LayerCount: 2
Fore
SplineSet
594 469 m 0,0,1
 594 438 594 438 563 438 c 2,2,-1
 503 438 l 1,3,-1
 437 188 l 1,4,5
 482 188 482 188 483 187 c 0,6,7
 510 182 510 182 510 156 c 0,8,9
 510 125 510 125 479 125 c 2,10,-1
 420 125 l 1,11,-1
 392 23 l 2,12,13
 386 0 386 0 363 0 c 0,14,15
 331 0 331 0 331 30 c 0,16,17
 331 35 331 35 355 125 c 1,18,-1
 211 125 l 1,19,-1
 184 23 l 2,20,21
 178 0 178 0 155 0 c 0,22,23
 122 0 122 0 122 30 c 0,24,25
 122 35 122 35 147 125 c 1,26,27
 102 125 102 125 100 125 c 0,28,29
 73 130 73 130 73 156 c 0,30,31
 73 188 73 188 104 188 c 2,32,-1
 163 188 l 1,33,-1
 230 438 l 1,34,35
 185 438 185 438 184 438 c 0,36,37
 157 443 157 443 157 469 c 0,38,39
 157 500 157 500 188 500 c 2,40,-1
 247 500 l 1,41,-1
 275 602 l 2,42,43
 281 625 281 625 304 625 c 0,44,45
 336 625 336 625 336 595 c 0,46,47
 336 590 336 590 312 500 c 1,48,-1
 455 500 l 1,49,-1
 483 602 l 2,50,51
 489 625 489 625 512 625 c 0,52,53
 544 625 544 625 545 595 c 0,54,55
 545 590 545 590 520 500 c 1,56,57
 565 500 565 500 567 500 c 0,58,59
 594 495 594 495 594 469 c 0,0,1
439 438 m 1,60,-1
 295 438 l 1,61,-1
 228 188 l 1,62,-1
 372 188 l 1,63,-1
 439 438 l 1,60,-1
EndSplineSet
Validated: 1
EndChar

StartChar: dollar
Encoding: 36 36 4
Width: 500
GlyphClass: 2
Flags: W
LayerCount: 2
Fore
SplineSet
550 531 m 0,0,1
 550 518 550 518 540 509 c 128,-1,2
 530 500 530 500 517 500 c 0,3,4
 509 500 509 500 483 527 c 0,5,6
 456 556 456 556 420 561 c 1,7,-1
 369 372 l 1,8,9
 434 362 434 362 476 325 c 0,10,11
 524 283 524 283 524 221 c 0,12,13
 524 132 524 132 439 67 c 0,14,15
 363 9 363 9 270 1 c 1,16,-1
 242 -102 l 2,17,18
 236 -125 236 -125 212 -125 c 0,19,20
 180 -125 180 -125 180 -95 c 0,21,22
 180 -90 180 -90 205 3 c 1,23,24
 98 19 98 19 64 96 c 0,25,26
 61 104 61 104 60 110 c 0,27,28
 60 141 60 141 93 141 c 0,29,30
 108 141 108 141 124 116 c 0,31,32
 153 71 153 71 222 64 c 1,33,-1
 289 316 l 1,34,35
 237 326 237 326 204 357 c 0,36,37
 167 391 167 391 167 439 c 0,38,39
 167 514 167 514 235 568 c 0,40,41
 296 616 296 616 372 624 c 1,42,-1
 399 727 l 2,43,44
 405 750 405 750 428 750 c 0,45,46
 460 750 460 750 461 720 c 0,47,48
 461 715 461 715 436 622 c 1,49,50
 518 607 518 607 546 545 c 0,51,52
 550 537 550 537 550 531 c 0,0,1
354 558 m 1,53,54
 309 549 309 549 272 519 c 0,55,56
 230 484 230 484 230 441 c 0,57,58
 230 385 230 385 305 376 c 1,59,-1
 354 558 l 1,53,54
460 222 m 0,60,61
 460 302 460 302 352 312 c 1,62,-1
 287 65 l 1,63,64
 351 75 351 75 401 116 c 0,65,66
 460 162 460 162 460 222 c 0,60,61
EndSplineSet
Validated: 1
EndChar

StartChar: percent
Encoding: 37 37 5
Width: 500
GlyphClass: 2
Flags: W
LayerCount: 2
Fore
SplineSet
391 520 m 0,0,1
 391 450 391 450 350 385 c 0,2,3
 304 312 304 312 238 312 c 0,4,5
 152 312 152 312 151 418 c 0,6,7
 151 488 151 488 192 552 c 0,8,9
 238 624 238 624 305 625 c 0,10,11
 391 625 391 625 391 520 c 0,0,1
628 594 m 0,12,13
 628 582 628 582 619 572 c 2,14,-1
 93 10 l 2,15,16
 83 0 83 0 71 -0 c 256,17,18
 59 0 59 0 49 9.5 c 128,-1,19
 39 19 39 19 39 31 c 0,20,21
 39 42 39 42 48 52 c 2,22,-1
 573 615 l 2,23,24
 583 625 583 625 596 625 c 256,25,26
 609 625 609 625 618.5 616 c 128,-1,27
 628 607 628 607 628 594 c 0,12,13
516 207 m 0,28,29
 516 136 516 136 475 72 c 0,30,31
 429 0 429 0 362 0 c 0,32,33
 276 0 276 0 276 105 c 0,34,35
 276 175 276 175 317 240 c 0,36,37
 363 312 363 312 429 312 c 0,38,39
 516 312 516 312 516 207 c 0,28,29
330 517 m 0,40,41
 330 562 330 562 305 562 c 0,42,43
 277 562 277 562 249 524 c 0,44,45
 212 473 212 473 212 421 c 0,46,47
 212 406 212 406 218 392 c 0,48,49
 226 374 226 374 238 375 c 0,50,51
 266 375 266 375 293 413 c 0,52,53
 330 465 330 465 330 517 c 0,40,41
455 204 m 0,54,55
 455 250 455 250 429 250 c 0,56,57
 401 250 401 250 374 212 c 0,58,59
 337 161 337 161 337 108 c 0,60,61
 337 93 337 93 342 80 c 0,62,63
 349 62 349 62 362 62 c 0,64,65
 390 62 390 62 418 101 c 0,66,67
 455 152 455 152 455 204 c 0,54,55
EndSplineSet
Validated: 1
EndChar

StartChar: ampersand
Encoding: 38 38 6
Width: 500
GlyphClass: 2
Flags: W
LayerCount: 2
Fore
SplineSet
478 31 m 0,0,1
 478 18 478 18 468 9 c 128,-1,2
 458 0 458 0 445 -0 c 0,3,4
 429 0 429 0 419 15 c 2,5,-1
 375 85 l 1,6,7
 305 0 305 0 211 0 c 0,8,9
 149 0 149 0 112 41 c 0,10,11
 76 81 76 81 75 144 c 0,12,13
 75 206 75 206 113 265 c 0,14,15
 150 322 150 322 206 352 c 1,16,17
 179 395 179 395 179 433 c 0,18,19
 179 504 179 504 235.5 564.5 c 128,-1,20
 292 625 292 625 362 625 c 0,21,22
 414 625 414 625 446 590 c 0,23,24
 477 556 477 556 477 504 c 0,25,26
 477 434 477 434 425 377 c 0,27,28
 373 318 373 318 305 313 c 1,29,-1
 472 48 l 2,30,31
 478 39 478 39 478 31 c 0,0,1
414 508 m 0,32,33
 414 562 414 562 362 562 c 0,34,35
 319 562 319 562 280 520 c 128,-1,36
 241 478 241 478 241 434 c 0,37,38
 241 412 241 412 267 372 c 1,39,40
 281 374 281 374 295 375 c 0,41,42
 343 375 343 375 379 418 c 0,43,44
 414 460 414 460 414 508 c 0,32,33
339 142 m 1,45,-1
 239 300 l 1,46,47
 196 280 196 280 167 233 c 128,-1,48
 138 186 138 186 138 139 c 0,49,50
 138 62 138 62 211 62 c 0,51,52
 287 62 287 62 339 142 c 1,45,-1
EndSplineSet
Validated: 1
EndChar

StartChar: quotesingle
Encoding: 39 39 7
Width: 500
GlyphClass: 2
Flags: W
LayerCount: 2
Fore
SplineSet
444 616 m 0,0,1
 447 606 447 606 444 598 c 2,2,-1
 393 417 l 2,3,4
 388 401 388 401 373 395 c 0,5,6
 361 390 361 390 349 396 c 0,7,8
 336 402 336 402 332 415 c 0,9,10
 328 424 328 424 332 434 c 2,11,-1
 384 615 l 2,12,13
 389 631 389 631 403 636 c 0,14,15
 415 640 415 640 427.5 634 c 128,-1,16
 440 628 440 628 444 616 c 0,0,1
EndSplineSet
Validated: 1
EndChar

StartChar: parenleft
Encoding: 40 40 8
Width: 500
GlyphClass: 2
Flags: W
LayerCount: 2
Fore
SplineSet
638 768 m 0,0,1
 638 758 638 758 625 748 c 0,2,3
 591 723 591 723 508 657 c 1,4,5
 251 435 251 435 251 200 c 0,6,7
 251 116 251 116 294 28 c 0,8,9
 297 22 297 22 297 18 c 0,10,11
 297 -12 297 -12 242 -12 c 0,12,13
 209 -12 209 -12 193 10 c 0,14,15
 190 13 190 13 181 33 c 0,16,17
 145 113 145 113 145 200 c 0,18,19
 145 458 145 458 438 707 c 0,20,21
 501 760 501 760 544 788 c 0,22,23
 562 800 562 800 584 800 c 128,-1,25
 606 800 606 800 622 790.5 c 128,-1,26
 638 781 638 781 638 768 c 0,0,1
EndSplineSet
Validated: 1
EndChar

StartChar: parenright
Encoding: 41 41 9
Width: 500
GlyphClass: 2
Flags: W
LayerCount: 2
Fore
SplineSet
522 400 m 0,0,1
 522 141 522 141 229 -107 c 0,2,3
 167 -159 167 -159 123 -188 c 0,4,5
 105 -200 105 -200 83 -200 c 0,6,7
 62 -200 62 -200 45.5 -190.5 c 128,-1,8
 29 -181 29 -181 29 -168 c 0,9,10
 29 -158 29 -158 90 -113 c 0,11,12
 128 -85 128 -85 159 -57 c 0,13,14
 416 165 416 165 416 400 c 0,15,16
 416 484 416 484 373 572 c 0,17,18
 370 578 370 578 370 582 c 0,19,20
 370 612 370 612 425 612 c 0,21,22
 458 612 458 612 474 590 c 0,23,24
 477 587 477 587 486 567 c 0,25,26
 522 487 522 487 522 400 c 0,0,1
EndSplineSet
Validated: 1
EndChar

StartChar: asterisk
Encoding: 42 42 10
Width: 500
GlyphClass: 2
Flags: W
LayerCount: 2
Fore
SplineSet
578 406 m 256,0,1
 578 375 578 375 549 375 c 0,2,3
 547 375 547 375 405 383 c 1,4,-1
 481 292 l 2,5,6
 488 284 488 284 488 273 c 0,7,8
 488 261 488 261 478 251.5 c 128,-1,9
 468 242 468 242 455 242 c 0,10,11
 439 242 439 242 430 255 c 2,12,-1
 369 353 l 1,13,-1
 338 211 l 2,14,15
 333 188 333 188 309 188 c 0,16,17
 277 188 277 188 277 218 c 0,18,19
 277 228 277 228 295 278 c 0,20,21
 316 335 316 335 318 344 c 1,22,-1
 210 249 l 2,23,24
 202 241 202 241 190 242 c 0,25,26
 177 242 177 242 168 251.5 c 128,-1,27
 159 261 159 261 159 274 c 0,28,29
 159 289 159 289 171 298 c 2,30,-1
 291 383 l 1,31,-1
 169 375 l 1,32,33
 140 375 140 375 140 406 c 256,34,35
 140 438 140 438 168 438 c 0,36,37
 170 438 170 438 312 430 c 1,38,-1
 236 520 l 2,39,40
 229 528 229 528 230 539 c 0,41,42
 230 551 230 551 240 560.5 c 128,-1,43
 250 570 250 570 262 570 c 0,44,45
 278 570 278 570 287 557 c 2,46,-1
 349 460 l 1,47,-1
 379 602 l 2,48,49
 384 625 384 625 408 625 c 0,50,51
 440 625 440 625 440 595 c 0,52,53
 440 585 440 585 422 535 c 0,54,55
 402 478 402 478 400 468 c 1,56,-1
 508 563 l 2,57,58
 516 571 516 571 527 571 c 0,59,60
 540 571 540 571 549 561 c 128,-1,61
 558 551 558 551 558 538 c 0,62,63
 558 523 558 523 546 514 c 2,64,-1
 426 430 l 1,65,-1
 548 438 l 1,66,67
 578 438 578 438 578 406 c 256,0,1
EndSplineSet
Validated: 1
EndChar

StartChar: plus
Encoding: 43 43 11
Width: 500
GlyphClass: 2
Flags: W
LayerCount: 2
Fore
SplineSet
540 266 m 256,0,1
 540 235 540 235 509 235 c 2,2,-1
 345 235 l 1,3,-1
 301 70 l 2,4,5
 295 47 295 47 272 47 c 0,6,7
 240 47 240 47 240 77 c 0,8,9
 240 81 240 81 280 235 c 1,10,-1
 134 235 l 2,11,12
 102 235 102 235 102 266 c 256,13,14
 102 297 102 297 134 297 c 2,15,-1
 298 297 l 1,16,-1
 341 461 l 2,17,18
 347 484 347 484 371 485 c 0,19,20
 403 485 403 485 403 454 c 0,21,22
 403 450 403 450 362 297 c 1,23,-1
 509 297 l 2,24,25
 540 297 540 297 540 266 c 256,0,1
EndSplineSet
Validated: 1
EndChar

StartChar: comma
Encoding: 44 44 12
Width: 500
GlyphClass: 2
Flags: W
LayerCount: 2
Fore
SplineSet
355 58 m 0,0,1
 355 53 355 53 354 48 c 0,2,3
 312 -110 312 -110 202 -193 c 0,4,5
 192 -200 192 -200 183 -200 c 0,6,7
 170 -200 170 -200 160 -190 c 0,8,9
 151 -180 151 -180 151 -168 c 0,10,11
 151 -155 151 -155 164 -144 c 0,12,13
 250 -70 250 -70 294 64 c 0,14,15
 302 88 302 88 323 88 c 0,16,17
 354 88 354 88 355 58 c 0,0,1
EndSplineSet
Validated: 1
EndChar

StartChar: hyphen
Encoding: 45 45 13
AltUni2: 002010.ffffffff.0
Width: 500
GlyphClass: 2
Flags: W
LayerCount: 2
Fore
SplineSet
434 219 m 256,0,1
 434 188 434 188 402 188 c 2,2,-1
 215 188 l 2,3,4
 184 188 184 188 184 219 c 256,5,6
 184 250 184 250 215 250 c 2,7,-1
 402 250 l 2,8,9
 434 250 434 250 434 219 c 256,0,1
EndSplineSet
Validated: 1
EndChar

StartChar: period
Encoding: 46 46 14
Width: 500
GlyphClass: 2
Flags: W
LayerCount: 2
Fore
SplineSet
288 -122 m 0,0,1
 288 -151 288 -151 266 -172.5 c 128,-1,2
 244 -194 244 -194 215 -194 c 0,3,4
 190 -194 190 -194 172 -176 c 0,5,6
 154 -158 154 -158 154 -132 c 0,7,8
 154 -103 154 -103 176 -82.5 c 128,-1,9
 198 -62 198 -62 227 -62 c 0,10,11
 253 -62 253 -62 270.5 -79 c 128,-1,12
 288 -96 288 -96 288 -122 c 0,0,1
EndSplineSet
Validated: 1
EndChar

StartChar: slash
Encoding: 47 47 15
Width: 500
GlyphClass: 2
Flags: W
LayerCount: 2
Fore
SplineSet
629 594 m 0,0,1
 629 584 629 584 622 575 c 2,2,-1
 45 -176 l 2,3,4
 35 -188 35 -188 21 -188 c 0,5,6
 9 -188 9 -188 -1 -179 c 128,-1,7
 -11 -170 -11 -170 -11 -157 c 0,8,9
 -11 -148 -11 -148 -4 -138 c 2,10,-1
 572 613 l 2,11,12
 582 625 582 625 596 625 c 0,13,14
 609 625 609 625 619 616 c 128,-1,15
 629 607 629 607 629 594 c 0,0,1
EndSplineSet
Validated: 1
EndChar

StartChar: zero
Encoding: 48 48 16
Width: 500
GlyphClass: 2
Flags: W
LayerCount: 2
Fore
SplineSet
550 339 m 0,0,1
 550 220 550 220 465 113 c 0,2,3
 375 0 375 0 258 0 c 0,4,5
 179 0 179 0 134 58 c 0,6,7
 92 110 92 110 92 192 c 0,8,9
 92 311 92 311 178 418 c 0,10,11
 268 531 268 531 384 531 c 0,12,13
 463 531 463 531 509 473 c 0,14,15
 550 421 550 421 550 339 c 0,0,1
488 341 m 0,16,17
 488 393 488 393 463 429 c 0,18,19
 435 469 435 469 384 469 c 0,20,21
 310 469 310 469 244 398 c 0,22,23
 185 336 185 336 164 258 c 0,24,25
 155 225 155 225 155 196 c 0,26,27
 155 193 155 193 155 190 c 0,28,29
 155 138 155 138 180 102 c 0,30,31
 209 62 209 62 258 62 c 0,32,33
 332 62 332 62 399 133 c 0,34,35
 458 196 458 196 479 274 c 0,36,37
 488 309 488 309 488 341 c 0,16,17
358 268 m 0,38,39
 358 253 358 253 345.5 241.5 c 128,-1,40
 333 230 333 230 318 230 c 0,41,42
 286 230 286 230 285 262 c 0,43,44
 285 277 285 277 297 288.5 c 128,-1,45
 309 300 309 300 324 300 c 0,46,47
 358 300 358 300 358 268 c 0,38,39
EndSplineSet
Validated: 1
EndChar

StartChar: one
Encoding: 49 49 17
Width: 500
GlyphClass: 2
Flags: W
LayerCount: 2
Fore
SplineSet
437 500 m 0,0,1
 437 498 437 498 434 487 c 2,2,-1
 320 62 l 1,3,4
 365 62 365 62 367 62 c 0,5,6
 394 57 394 57 394 31 c 0,7,8
 394 0 394 0 362 0 c 2,9,-1
 196 0 l 2,10,11
 165 0 165 0 165 31 c 256,12,13
 165 62 165 62 196 62 c 2,14,-1
 255 62 l 1,15,-1
 350 417 l 1,16,-1
 266 350 l 2,17,18
 257 343 257 343 246 343 c 0,19,20
 233 343 233 343 224 353 c 128,-1,21
 215 363 215 363 215 376 c 0,22,23
 215 390 215 390 227 400 c 2,24,-1
 381 521 l 2,25,26
 394 531 394 531 405 532 c 0,27,28
 437 532 437 532 437 500 c 0,0,1
EndSplineSet
Validated: 1
EndChar

StartChar: two
Encoding: 50 50 18
Width: 500
GlyphClass: 2
Flags: W
LayerCount: 2
Fore
SplineSet
533 384 m 0,0,1
 533 332 533 332 508 284 c 0,2,3
 483 234 483 234 440 207 c 2,4,-1
 210 62 l 1,5,-1
 414 62 l 2,6,7
 445 62 445 62 445 31 c 256,8,9
 445 0 445 0 414 0 c 2,10,-1
 102 -0 l 2,11,12
 71 0 71 0 70 32 c 0,13,14
 70 49 70 49 89 60 c 2,15,-1
 407 260 l 2,16,17
 436 278 436 278 454 315 c 0,18,19
 471 348 471 348 471 381 c 0,20,21
 471 469 471 469 384 469 c 0,22,23
 339 469 339 469 297 442 c 0,24,25
 257 417 257 417 233 376 c 1,26,27
 225 356 225 356 217 336 c 0,28,29
 205 312 205 312 186 312 c 0,30,31
 154 312 154 312 154 342 c 0,32,33
 154 347 154 347 155 352 c 0,34,35
 175 427 175 427 241 479 c 128,-1,36
 307 531 307 531 384 531 c 0,37,38
 452 531 452 531 492.5 491.5 c 128,-1,39
 533 452 533 452 533 384 c 0,0,1
EndSplineSet
Validated: 1
EndChar

StartChar: three
Encoding: 51 51 19
Width: 500
GlyphClass: 2
Flags: W
LayerCount: 2
Fore
SplineSet
579 504 m 0,0,1
 579 488 579 488 562 475 c 2,2,-1
 339 311 l 1,3,4
 402 303 402 303 438 263 c 0,5,6
 475 223 475 223 475 160 c 0,7,8
 475 58 475 58 399 -18 c 128,-1,9
 323 -94 323 -94 221 -94 c 0,10,11
 166 -94 166 -94 124 -66 c 0,12,13
 81 -37 81 -37 65 14 c 0,14,15
 63 19 63 19 63 25 c 0,16,17
 63 55 63 55 96 55 c 0,18,19
 116 54 116 54 125 32 c 0,20,21
 151 -31 151 -31 219 -31 c 0,22,23
 220 -31 220 -31 221 -31 c 0,24,25
 296 -31 296 -31 354 26.5 c 128,-1,26
 412 84 412 84 412 158 c 0,27,28
 412 250 412 250 313 250 c 0,29,30
 277 250 277 250 227.5 224.5 c 128,-1,31
 178 199 178 199 176 199 c 0,32,33
 164 199 164 199 154.5 208.5 c 128,-1,34
 145 218 145 218 145 230 c 0,35,36
 145 245 145 245 160 256 c 2,37,-1
 448 469 l 1,38,-1
 222 469 l 2,39,40
 191 469 191 469 191 502 c 0,41,42
 191 531 191 531 222 531 c 2,43,-1
 543 531 l 2,44,45
 544 531 544 531 545 531 c 0,46,47
 579 531 579 531 579 504 c 0,0,1
EndSplineSet
Validated: 1
EndChar

StartChar: four
Encoding: 52 52 20
Width: 500
GlyphClass: 2
Flags: W
LayerCount: 2
Fore
SplineSet
503 125 m 256,0,1
 503 94 503 94 472 94 c 2,2,-1
 370 94 l 1,3,-1
 327 -70 l 2,4,5
 321 -93 321 -93 297 -94 c 0,6,7
 265 -94 265 -94 265 -64 c 0,8,9
 265 -59 265 -59 266 -55 c 2,10,-1
 306 94 l 1,11,-1
 97 94 l 2,12,13
 62 94 62 94 62 120 c 0,14,15
 62 133 62 133 74 146 c 2,16,-1
 424 521 l 2,17,18
 437 535 437 535 452 535 c 0,19,20
 479 535 479 535 479 505 c 0,21,22
 479 500 479 500 477 492 c 2,23,-1
 387 156 l 1,24,-1
 472 156 l 2,25,26
 503 156 503 156 503 125 c 256,0,1
385 388 m 1,27,-1
 168 156 l 1,28,-1
 322 156 l 1,29,-1
 385 388 l 1,27,-1
EndSplineSet
Validated: 1
EndChar

StartChar: five
Encoding: 53 53 21
Width: 500
GlyphClass: 2
Flags: W
LayerCount: 2
Fore
SplineSet
590 500 m 256,0,1
 590 469 590 469 559 469 c 2,2,-1
 273 469 l 1,3,-1
 209 316 l 1,4,5
 264 344 264 344 321 344 c 0,6,7
 399 344 399 344 446 301 c 0,8,9
 494 257 494 257 494 179 c 0,10,11
 494 68 494 68 413 -13 c 128,-1,12
 332 -94 332 -94 221 -94 c 0,13,14
 162 -94 162 -94 117 -64 c 0,15,16
 71 -33 71 -33 54 22 c 0,17,18
 52 26 52 26 52 32 c 0,19,20
 52 62 52 62 85 62 c 0,21,22
 105 62 105 62 113 40 c 0,23,24
 114 34 114 34 122 20 c 0,25,26
 150 -31 150 -31 221 -31 c 0,27,28
 303 -31 303 -31 368 32 c 128,-1,29
 433 95 433 95 433 178 c 0,30,31
 433 228 433 228 402 255 c 0,32,33
 372 281 372 281 321 281 c 0,34,35
 236 281 236 281 158 199 c 0,36,37
 144 184 144 184 130 184 c 0,38,39
 102 184 102 184 101 214 c 0,40,41
 101 222 101 222 105 231 c 2,42,-1
 224 512 l 2,43,44
 226 518 226 518 236 524.5 c 128,-1,45
 246 531 246 531 253 531 c 2,46,-1
 559 531 l 2,47,48
 590 531 590 531 590 500 c 256,0,1
EndSplineSet
Validated: 1
EndChar

StartChar: six
Encoding: 54 54 22
Width: 500
GlyphClass: 2
Flags: W
LayerCount: 2
Fore
SplineSet
627 594 m 256,0,1
 627 562 627 562 596 562 c 0,2,3
 424 562 424 562 281 425 c 1,4,5
 320 438 320 438 358 438 c 0,6,7
 434 438 434 438 483.5 390.5 c 128,-1,8
 533 343 533 343 533 267 c 0,9,10
 533 162 533 162 447.5 81 c 128,-1,11
 362 0 362 0 258 0 c 0,12,13
 182 0 182 0 132 47.5 c 128,-1,14
 82 95 82 95 82 170 c 0,15,16
 82 197 82 197 90 227 c 0,17,18
 135 392 135 392 280 508 c 0,19,20
 426 625 426 625 593 625 c 0,21,22
 594 625 594 625 596 625 c 0,23,24
 627 625 627 625 627 594 c 256,0,1
470 272 m 0,25,26
 470 322 470 322 439 349 c 0,27,28
 409 375 409 375 358 375 c 0,29,30
 275 375 275 375 210.5 312 c 128,-1,31
 146 249 146 249 146 166 c 0,32,33
 146 116 146 116 177 88 c 0,34,35
 208 62 208 62 258 62 c 0,36,37
 341 62 341 62 405.5 125.5 c 128,-1,38
 470 189 470 189 470 272 c 0,25,26
EndSplineSet
Validated: 1
EndChar

StartChar: seven
Encoding: 55 55 23
Width: 500
GlyphClass: 2
Flags: W
LayerCount: 2
Fore
SplineSet
605 505 m 0,0,1
 605 493 605 493 595 480 c 2,2,-1
 142 -82 l 2,3,4
 132 -94 132 -94 119 -94 c 128,-1,5
 106 -94 106 -94 96 -84 c 0,6,7
 86 -74 86 -74 86 -62 c 0,8,9
 86 -52 86 -52 94 -43 c 2,10,-1
 505 469 l 1,11,-1
 196 469 l 2,12,13
 165 469 165 469 165 500 c 256,14,15
 165 531 165 531 196 531 c 2,16,-1
 571 531 l 2,17,18
 605 531 605 531 605 505 c 0,0,1
EndSplineSet
Validated: 1
EndChar

StartChar: eight
Encoding: 56 56 24
Width: 500
GlyphClass: 2
Flags: W
LayerCount: 2
Fore
SplineSet
536 501 m 0,0,1
 536 402 536 402 440 342 c 1,2,3
 492 300 492 300 493 228 c 0,4,5
 493 138 493 138 420.5 69 c 128,-1,6
 348 0 348 0 258 0 c 0,7,8
 193 0 193 0 150 41 c 128,-1,9
 107 82 107 82 107 147 c 0,10,11
 107 211 107 211 148 268 c 0,12,13
 186 322 186 322 246 352 c 1,14,15
 215 386 215 386 215 434 c 0,16,17
 215 511 215 511 275 568 c 128,-1,18
 335 625 335 625 409 625 c 0,19,20
 464 625 464 625 500 590.5 c 128,-1,21
 536 556 536 556 536 501 c 0,0,1
473 504 m 0,22,23
 473 562 473 562 409 562 c 0,24,25
 359 562 359 562 318.5 523 c 128,-1,26
 278 484 278 484 278 434 c 0,27,28
 278 375 278 375 342 375 c 0,29,30
 392 375 392 375 432.5 414.5 c 128,-1,31
 473 454 473 454 473 504 c 0,22,23
430 232 m 0,32,33
 430 312 430 312 342 312 c 0,34,35
 276 312 276 312 223 261 c 128,-1,36
 170 210 170 210 170 143 c 0,37,38
 170 62 170 62 258 62 c 0,39,40
 325 62 325 62 377.5 114 c 128,-1,41
 430 166 430 166 430 232 c 0,32,33
EndSplineSet
Validated: 1
EndChar

StartChar: nine
Encoding: 57 57 25
Width: 500
GlyphClass: 2
Flags: W
LayerCount: 2
Fore
SplineSet
560 361 m 0,0,1
 560 333 560 333 552 305 c 0,2,3
 508 140 508 140 363 24 c 0,4,5
 215 -94 215 -94 46 -94 c 0,6,7
 15 -94 15 -94 15 -62 c 256,8,9
 15 -31 15 -31 46 -31 c 0,10,11
 218 -31 218 -31 362 107 c 1,12,13
 323 94 323 94 284 94 c 0,14,15
 208 94 208 94 158.5 141 c 128,-1,16
 109 188 109 188 109 264 c 0,17,18
 109 368 109 368 195 450 c 0,19,20
 280 531 280 531 385 531 c 0,21,22
 461 531 461 531 510.5 484 c 128,-1,23
 560 437 560 437 560 361 c 0,0,1
496 365 m 0,24,25
 496 415 496 415 465 443 c 0,26,27
 435 469 435 469 385 469 c 0,28,29
 302 469 302 469 237 405.5 c 128,-1,30
 172 342 172 342 172 260 c 0,31,32
 172 210 172 210 204 182 c 0,33,34
 234 156 234 156 284 156 c 0,35,36
 367 156 367 156 431.5 219.5 c 128,-1,37
 496 283 496 283 496 365 c 0,24,25
EndSplineSet
Validated: 1
EndChar

StartChar: colon
Encoding: 58 58 26
Width: 500
GlyphClass: 2
Flags: W
LayerCount: 2
Fore
SplineSet
449 465 m 0,0,1
 449 436 449 436 426.5 415 c 128,-1,2
 404 394 404 394 375 394 c 0,3,4
 349 394 349 394 332 411.5 c 128,-1,5
 315 429 315 429 315 455 c 0,6,7
 315 484 315 484 336.5 504.5 c 128,-1,8
 358 525 358 525 388 525 c 0,9,10
 414 525 414 525 431.5 508 c 128,-1,11
 449 491 449 491 449 465 c 0,0,1
311 72 m 0,12,13
 311 43 311 43 289 21.5 c 128,-1,14
 267 0 267 0 238 0 c 0,15,16
 212 0 212 0 194.5 17.5 c 128,-1,17
 177 35 177 35 177 61 c 0,18,19
 177 90 177 90 199 110.5 c 128,-1,20
 221 131 221 131 250 131 c 0,21,22
 276 131 276 131 293.5 114.5 c 128,-1,23
 311 98 311 98 311 72 c 0,12,13
EndSplineSet
Validated: 1
EndChar

StartChar: semicolon
Encoding: 59 59 27
Width: 500
GlyphClass: 2
Flags: W
LayerCount: 2
Fore
SplineSet
492 397 m 0,0,1
 492 368 492 368 470 346.5 c 128,-1,2
 448 325 448 325 418 325 c 0,3,4
 392 325 392 325 374.5 342.5 c 128,-1,5
 357 360 357 360 357 386 c 0,6,7
 357 415 357 415 379 435.5 c 128,-1,8
 401 456 401 456 430 456 c 0,9,10
 456 456 456 456 474 439.5 c 128,-1,11
 492 423 492 423 492 397 c 0,0,1
372 53 m 0,12,13
 372 48 372 48 371 44 c 0,14,15
 336 -91 336 -91 198 -193 c 0,16,17
 188 -200 188 -200 179 -200 c 0,18,19
 166 -200 166 -200 156.5 -190 c 128,-1,20
 147 -180 147 -180 147 -168 c 256,21,22
 147 -155 147 -155 160 -144 c 0,23,24
 276 -49 276 -49 310 60 c 0,25,26
 318 83 318 83 340 83 c 0,27,28
 372 83 372 83 372 53 c 0,12,13
EndSplineSet
Validated: 1
EndChar

StartChar: less
Encoding: 60 60 28
Width: 500
GlyphClass: 2
Flags: W
LayerCount: 2
Fore
SplineSet
590 452 m 0,0,1
 590 433 590 433 572 425 c 2,2,-1
 203 262 l 1,3,-1
 474 105 l 2,4,5
 490 96 490 96 490 79 c 0,6,7
 490 66 490 66 481 56 c 128,-1,8
 472 46 472 46 459 46 c 0,9,10
 451 46 451 46 443 51 c 2,11,-1
 123 235 l 2,12,13
 102 247 102 247 102 266 c 0,14,15
 102 286 102 286 127 297 c 2,16,-1
 546 482 l 2,17,18
 553 485 553 485 560 485 c 0,19,20
 590 484 590 484 590 452 c 0,0,1
EndSplineSet
Validated: 1
EndChar

StartChar: equal
Encoding: 61 61 29
Width: 500
GlyphClass: 2
Flags: W
LayerCount: 2
Fore
SplineSet
565 360 m 256,0,1
 565 329 565 329 534 328 c 2,2,-1
 159 328 l 2,3,4
 128 328 128 328 128 360 c 256,5,6
 128 391 128 391 159 391 c 2,7,-1
 534 391 l 2,8,9
 565 391 565 391 565 360 c 256,0,1
515 172 m 256,10,11
 515 141 515 141 484 141 c 2,12,-1
 109 141 l 2,13,14
 78 141 78 141 78 172 c 256,15,16
 78 203 78 203 109 203 c 2,17,-1
 484 203 l 2,18,19
 515 203 515 203 515 172 c 256,10,11
EndSplineSet
Validated: 1
EndChar

StartChar: greater
Encoding: 62 62 30
Width: 500
GlyphClass: 2
Flags: W
LayerCount: 2
Fore
SplineSet
540 265 m 0,0,1
 540 245 540 245 516 235 c 2,2,-1
 96 50 l 2,3,4
 88 47 88 47 82 47 c 0,5,6
 52 47 52 47 52 79 c 0,7,8
 52 98 52 98 71 107 c 2,9,-1
 440 269 l 1,10,-1
 168 426 l 2,11,12
 152 435 152 435 152 452 c 0,13,14
 152 465 152 465 161 475 c 128,-1,15
 170 485 170 485 183 485 c 0,16,17
 191 485 191 485 200 480 c 2,18,-1
 519 296 l 2,19,20
 540 283 540 283 540 265 c 0,0,1
EndSplineSet
Validated: 1
EndChar

StartChar: question
Encoding: 63 63 31
Width: 500
GlyphClass: 2
Flags: W
LayerCount: 2
Fore
SplineSet
597 494 m 0,0,1
 597 456 597 456 574 420 c 0,2,3
 540 365 540 365 473 337 c 0,4,5
 414 312 414 312 343 312 c 0,6,7
 311 312 311 312 277 298 c 0,8,9
 235 280 235 280 235 251 c 0,10,11
 235 219 235 219 301 219 c 0,12,13
 324 220 324 220 352 228 c 0,14,15
 359 230 359 230 364 230 c 0,16,17
 394 230 394 230 394 197 c 0,18,19
 394 177 394 177 373 168 c 0,20,21
 345 156 345 156 301 156 c 0,22,23
 253 156 253 156 216 179 c 0,24,25
 171 206 171 206 171 250 c 0,26,27
 171 307 171 307 231 343 c 0,28,29
 283 375 283 375 343 375 c 0,30,31
 434 375 434 375 494 423 c 0,32,33
 534 455 534 455 534 493 c 0,34,35
 534 532 534 532 488 550 c 0,36,37
 455 562 455 562 410 562 c 0,38,39
 358 562 358 562 310 543 c 0,40,41
 254 521 254 521 229 482 c 0,42,43
 226 477 226 477 219 461 c 0,44,45
 210 438 210 438 190 438 c 0,46,47
 158 438 158 438 158 468 c 0,48,49
 158 473 158 473 159 477 c 0,50,51
 179 547 179 547 260 588 c 0,52,53
 330 625 330 625 410 625 c 0,54,55
 483 625 483 625 534 597 c 0,56,57
 597 562 597 562 597 494 c 0,0,1
268 49 m 0,58,59
 268 20 268 20 246 -1.5 c 128,-1,60
 224 -23 224 -23 195 -23 c 0,61,62
 169 -23 169 -23 152 -5 c 0,63,64
 134 13 134 13 134 38 c 0,65,66
 134 67 134 67 156 88 c 0,67,68
 178 108 178 108 207 108 c 0,69,70
 233 108 233 108 251 91 c 0,71,72
 268 75 268 75 268 49 c 0,58,59
EndSplineSet
Validated: 1
EndChar

StartChar: at
Encoding: 64 64 32
Width: 500
GlyphClass: 2
Flags: W
LayerCount: 2
Fore
SplineSet
581 453 m 0,0,1
 581 348 581 348 507 250 c 0,2,3
 428 146 428 146 325 146 c 0,4,5
 274 146 274 146 246 183 c 0,6,7
 221 217 221 217 221 269 c 0,8,9
 221 342 221 342 272 408 c 0,10,11
 328 479 328 479 398 479 c 0,12,13
 444 479 444 479 472 448 c 0,14,15
 497 419 497 419 501 372 c 1,16,17
 518 419 518 419 518 462 c 0,18,19
 518 562 518 562 437 562 c 0,20,21
 325 562 325 562 241 439 c 0,22,23
 166 328 166 328 166 210 c 0,24,25
 166 145 166 145 193 107 c 0,26,27
 224 62 224 62 286 62 c 0,28,29
 354 62 354 62 439 136 c 0,30,31
 450 146 450 146 460 146 c 0,32,33
 473 146 473 146 482.5 136.5 c 128,-1,34
 492 127 492 127 492 114 c 0,35,36
 492 102 492 102 482 92 c 0,37,38
 444 52 444 52 393 27 c 0,39,40
 338 0 338 0 286 0 c 0,41,42
 197 0 197 0 147 68 c 0,43,44
 102 129 102 129 102 221 c 0,45,46
 102 270 102 270 116 320 c 0,47,48
 148 435 148 435 232 525 c 0,49,50
 327 625 327 625 437 625 c 0,51,52
 507 624 507 624 546 572 c 0,53,54
 581 526 581 526 581 453 c 0,0,1
440 359 m 0,55,56
 440 382 440 382 430 398 c 0,57,58
 418 417 418 417 398 417 c 0,59,60
 354 417 354 417 316 363 c 0,61,62
 282 313 282 313 282 266 c 0,63,64
 282 244 282 244 292 228 c 0,65,66
 304 208 304 208 325 208 c 0,67,68
 370 208 370 208 407 262 c 0,69,70
 440 311 440 311 440 359 c 0,55,56
EndSplineSet
Validated: 1
EndChar

StartChar: A
Encoding: 65 65 33
Width: 500
GlyphClass: 2
Flags: W
LayerCount: 2
Fore
SplineSet
477 31 m 2,0,1
 477 30 477 30 477 28 c 0,2,3
 477 0 477 0 445 0 c 0,4,5
 416 0 416 0 415 29 c 2,6,-1
 404 188 l 1,7,-1
 201 188 l 1,8,-1
 98 15 l 2,9,10
 89 0 89 0 72 -0 c 0,11,12
 59 0 59 0 49 9 c 128,-1,13
 39 18 39 18 39 30 c 0,14,15
 39 40 39 40 44 48 c 2,16,-1
 380 605 l 2,17,18
 392 625 392 625 408 625 c 0,19,20
 438 625 438 625 440 591 c 2,21,-1
 477 31 l 2,0,1
400 250 m 1,22,-1
 384 492 l 1,23,-1
 239 250 l 1,24,-1
 400 250 l 1,22,-1
EndSplineSet
Validated: 1
EndChar

StartChar: B
Encoding: 66 66 34
Width: 500
GlyphClass: 2
Flags: W
LayerCount: 2
Fore
SplineSet
545 505 m 0,0,1
 544 457 544 457 520 413 c 0,2,3
 496 368 496 368 455 342 c 1,4,5
 502 302 502 302 502 232 c 0,6,7
 502 137 502 137 433.5 68.5 c 128,-1,8
 365 0 365 0 269 -0 c 2,9,-1
 92 0 l 2,10,11
 61 0 61 0 61 29 c 0,12,13
 61 34 61 34 213 602 c 0,14,15
 215 610 215 610 224.5 617.5 c 128,-1,16
 234 625 234 625 243 625 c 2,17,-1
 420 625 l 2,18,19
 477 625 477 625 511 594 c 0,20,21
 545 562 545 562 545 505 c 0,0,1
484 504 m 0,22,23
 484 562 484 562 420 562 c 2,24,-1
 267 562 l 1,25,-1
 217 375 l 1,26,-1
 353 375 l 2,27,28
 403 375 403 375 443.5 414.5 c 128,-1,29
 484 454 484 454 484 504 c 0,22,23
441 231 m 0,30,31
 441 312 441 312 353 312 c 2,32,-1
 200 312 l 1,33,-1
 133 62 l 1,34,-1
 269 62 l 2,35,36
 336 62 336 62 388.5 113.5 c 128,-1,37
 441 165 441 165 441 231 c 0,30,31
EndSplineSet
Validated: 1
EndChar

StartChar: C
Encoding: 67 67 35
Width: 500
GlyphClass: 2
Flags: W
LayerCount: 2
Fore
SplineSet
606 510 m 0,0,1
 606 498 606 498 596 489 c 128,-1,2
 586 480 586 480 574 480 c 0,3,4
 559 480 559 480 547 497 c 0,5,6
 545 499 545 499 541 508 c 0,7,8
 539 510 539 510 535 516 c 0,9,10
 501 562 501 562 441 562 c 0,11,12
 327 562 327 562 243 441 c 0,13,14
 166 331 166 331 166 212 c 0,15,16
 166 146 166 146 195 107 c 0,17,18
 227 62 227 62 291 62 c 0,19,20
 360 62 360 62 447 136 c 0,21,22
 458 145 458 145 468 145 c 0,23,24
 480 145 480 145 490 135.5 c 128,-1,25
 500 126 500 126 500 113 c 0,26,27
 500 101 500 101 490 91 c 0,28,29
 453 52 453 52 399 27 c 0,30,31
 342 0 342 0 291 0 c 0,32,33
 200 0 200 0 149 68 c 0,34,35
 103 128 103 128 103 222 c 0,36,37
 103 361 103 361 202 489 c 0,38,39
 307 625 307 625 441 625 c 0,40,41
 552 625 552 625 602 526 c 0,42,43
 606 518 606 518 606 510 c 0,0,1
EndSplineSet
Validated: 1
EndChar

StartChar: D
Encoding: 68 68 36
Width: 500
GlyphClass: 2
Flags: W
LayerCount: 2
Fore
SplineSet
541 385 m 0,0,1
 541 235 541 235 417 117 c 0,2,3
 295 0 295 0 143 0 c 2,4,-1
 91 0 l 2,5,6
 60 0 60 0 60 29 c 0,7,8
 60 34 60 34 61 39 c 2,9,-1
 212 602 l 2,10,11
 217 622 217 622 247 625 c 1,12,-1
 294 625 l 2,13,14
 402 625 402 625 470 560 c 0,15,16
 541 493 541 493 541 385 c 0,0,1
478 386 m 0,17,18
 478 467 478 467 426 515 c 0,19,20
 375 562 375 562 294 562 c 2,21,-1
 266 562 l 1,22,-1
 132 62 l 1,23,-1
 143 62 l 2,24,25
 268 62 268 62 372 161 c 0,26,27
 478 261 478 261 478 386 c 0,17,18
EndSplineSet
Validated: 1
EndChar

StartChar: E
Encoding: 69 69 37
Width: 500
GlyphClass: 2
Flags: W
LayerCount: 2
Fore
SplineSet
607 594 m 256,0,1
 607 562 607 562 575 562 c 2,2,-1
 266 562 l 1,3,-1
 208 344 l 1,4,-1
 500 344 l 2,5,6
 531 344 531 344 531 312 c 256,7,8
 531 281 531 281 500 281 c 2,9,-1
 191 281 l 1,10,-1
 132 62 l 1,11,-1
 425 62 l 2,12,13
 456 62 456 62 456 31 c 256,14,15
 456 0 456 0 425 0 c 2,16,-1
 91 0 l 2,17,18
 60 0 60 0 60 29 c 0,19,20
 60 34 60 34 212 602 c 0,21,22
 214 610 214 610 223.5 617.5 c 128,-1,23
 233 625 233 625 242 625 c 2,24,-1
 575 625 l 2,25,26
 607 625 607 625 607 594 c 256,0,1
EndSplineSet
Validated: 1
EndChar

StartChar: F
Encoding: 70 70 38
Width: 500
GlyphClass: 2
Flags: W
LayerCount: 2
Fore
SplineSet
607 594 m 256,0,1
 607 562 607 562 575 562 c 2,2,-1
 266 562 l 1,3,-1
 208 344 l 1,4,-1
 500 344 l 2,5,6
 531 344 531 344 531 312 c 256,7,8
 531 281 531 281 500 281 c 2,9,-1
 191 281 l 1,10,-1
 122 23 l 2,11,12
 116 0 116 0 92 0 c 0,13,14
 60 0 60 0 60 30 c 0,15,16
 60 35 60 35 61 39 c 2,17,-1
 211 600 l 2,18,19
 218 625 218 625 244 625 c 2,20,-1
 575 625 l 2,21,22
 607 625 607 625 607 594 c 256,0,1
EndSplineSet
Validated: 1
EndChar

StartChar: G
Encoding: 71 71 39
Width: 500
GlyphClass: 2
Flags: W
LayerCount: 2
Fore
SplineSet
597 525 m 0,0,1
 600 518 600 518 600 508 c 128,-1,2
 600 498 600 498 590 489 c 128,-1,3
 580 480 580 480 566 480 c 0,4,5
 549 480 549 480 540 498 c 0,6,7
 533 511 533 511 528 519 c 0,8,9
 498 562 498 562 406 562 c 0,10,11
 284 562 284 562 211 448 c 0,12,13
 122 311 122 311 122 202 c 0,14,15
 122 62 122 62 211 62 c 0,16,17
 296 62 296 62 410 64 c 1,18,-1
 473 283 l 2,19,20
 484 322 484 322 512 322 c 0,21,22
 513 322 513 322 514 322 c 0,23,24
 542 320 542 320 542 298 c 0,25,26
 542 292 542 292 541 285 c 2,27,-1
 484 64 l 2,28,29
 468 4 468 4 446 3 c 0,30,31
 351 2 351 2 217 0 c 0,32,33
 215 0 215 0 213 0 c 0,34,35
 68 0 68 0 68 206 c 0,36,37
 68 353 68 353 165 494 c 0,38,39
 254 625 254 625 400.5 625 c 128,-1,40
 547 625 547 625 597 525 c 0,0,1
EndSplineSet
Validated: 1
EndChar

StartChar: H
Encoding: 72 72 40
Width: 500
GlyphClass: 2
Flags: W
LayerCount: 2
Fore
SplineSet
586 595 m 0,0,1
 586 590 586 590 434 23 c 0,2,3
 428 0 428 0 405 0 c 0,4,5
 372 0 372 0 372 30 c 0,6,7
 372 35 372 35 374 39 c 2,8,-1
 439 281 l 1,9,-1
 212 281 l 1,10,-1
 142 23 l 2,11,12
 136 0 136 0 113 0 c 0,13,14
 81 0 81 0 81 30 c 0,15,16
 81 35 81 35 233 602 c 0,17,18
 239 625 239 625 262 625 c 0,19,20
 294 625 294 625 295 595 c 0,21,22
 295 590 295 590 293 586 c 2,23,-1
 228 344 l 1,24,-1
 455 344 l 1,25,-1
 525 602 l 2,26,27
 531 625 531 625 554 625 c 0,28,29
 586 625 586 625 586 595 c 0,0,1
EndSplineSet
Validated: 1
EndChar

StartChar: I
Encoding: 73 73 41
Width: 500
GlyphClass: 2
Flags: W
LayerCount: 2
Fore
SplineSet
565 594 m 256,0,1
 565 562 565 562 534 562 c 2,2,-1
 433 562 l 1,3,-1
 299 62 l 1,4,-1
 383 62 l 2,5,6
 414 62 414 62 415 31 c 256,7,8
 415 0 415 0 383 0 c 2,9,-1
 133 0 l 2,10,11
 102 0 102 0 102 31 c 256,12,13
 102 62 102 62 133 62 c 2,14,-1
 235 62 l 1,15,-1
 368 562 l 1,16,-1
 284 562 l 2,17,18
 253 562 253 562 253 594 c 256,19,20
 253 625 253 625 284 625 c 2,21,-1
 534 625 l 2,22,23
 565 625 565 625 565 594 c 256,0,1
EndSplineSet
Validated: 1
EndChar

StartChar: J
Encoding: 74 74 42
Width: 500
GlyphClass: 2
Flags: W
LayerCount: 2
Fore
SplineSet
608 595 m 0,0,1
 608 592 608 592 605 582 c 2,2,-1
 456 23 l 2,3,4
 433 -65 433 -65 356 -125 c 0,5,6
 278 -188 278 -188 188 -188 c 0,7,8
 140 -188 140 -188 98 -166 c 0,9,10
 54 -143 54 -143 33 -102 c 0,11,12
 28 -93 28 -93 29 -86 c 0,13,14
 29 -73 29 -73 39 -64 c 128,-1,15
 49 -55 49 -55 62 -55 c 0,16,17
 78 -55 78 -55 88 -72 c 0,18,19
 121 -125 121 -125 188 -125 c 0,20,21
 256 -125 256 -125 318 -76 c 0,22,23
 378 -28 378 -28 395 39 c 2,24,-1
 535 562 l 1,25,-1
 243 562 l 2,26,27
 212 562 212 562 212 594 c 256,28,29
 212 625 212 625 243 625 c 2,30,-1
 577 625 l 2,31,32
 608 625 608 625 608 595 c 0,0,1
EndSplineSet
Validated: 1
EndChar

StartChar: K
Encoding: 75 75 43
Width: 500
GlyphClass: 2
Flags: W
LayerCount: 2
Fore
SplineSet
607 593 m 0,0,1
 607 580 607 580 595 570 c 2,2,-1
 272 307 l 1,3,-1
 450 49 l 2,4,5
 456 40 456 40 457 31 c 0,6,7
 457 18 457 18 447 9 c 128,-1,8
 437 0 437 0 424 -0 c 0,9,10
 408 0 408 0 399 13 c 2,11,-1
 204 295 l 2,12,13
 199 302 199 302 198 308 c 1,14,-1
 122 23 l 2,15,16
 116 0 116 0 92 0 c 0,17,18
 60 0 60 0 60 30 c 0,19,20
 60 35 60 35 61 39 c 2,21,-1
 212 602 l 2,22,23
 218 625 218 625 238 625 c 0,24,25
 274 625 274 625 274 603 c 0,26,27
 273 598 273 598 272 593 c 2,28,-1
 204 331 l 1,29,30
 207 334 207 334 210 337 c 2,31,-1
 556 618 l 2,32,33
 565 625 565 625 575 625 c 0,34,35
 588 625 588 625 597.5 615.5 c 128,-1,36
 607 606 607 606 607 593 c 0,0,1
EndSplineSet
Validated: 1
EndChar

StartChar: L
Encoding: 76 76 44
Width: 500
GlyphClass: 2
Flags: W
LayerCount: 2
Fore
SplineSet
456 31 m 256,0,1
 456 0 456 0 425 0 c 2,2,-1
 91 0 l 2,3,4
 60 0 60 0 60 30 c 0,5,6
 60 35 60 35 62 43 c 2,7,-1
 212 602 l 2,8,9
 218 625 218 625 241 625 c 0,10,11
 273 625 273 625 274 595 c 0,12,13
 274 590 274 590 272 586 c 2,14,-1
 132 62 l 1,15,-1
 425 62 l 2,16,17
 456 62 456 62 456 31 c 256,0,1
EndSplineSet
Validated: 1
EndChar

StartChar: M
Encoding: 77 77 45
Width: 500
GlyphClass: 2
Flags: W
LayerCount: 2
Fore
SplineSet
553 595 m 0,0,1
 553 594 553 594 552 586 c 2,2,-1
 477 27 l 2,3,4
 473 0 473 0 446 0 c 0,5,6
 414 0 414 0 414 30 c 0,7,8
 414 32 414 32 415 35 c 2,9,-1
 467 422 l 1,10,-1
 321 145 l 2,11,12
 311 125 311 125 294 125 c 0,13,14
 293 125 293 125 292 125 c 0,15,16
 260 125 260 125 260 156 c 0,17,18
 260 207 260 207 261 292 c 2,19,-1
 263 428 l 1,20,-1
 100 20 l 2,21,22
 92 0 92 0 72 -0 c 0,23,24
 59 0 59 0 49 8.5 c 128,-1,25
 39 17 39 17 39 30 c 0,26,27
 39 37 39 37 42 43 c 2,28,-1
 266 602 l 2,29,30
 275 625 275 625 295 625 c 0,31,32
 327 625 327 625 328 595 c 0,33,34
 328 526 328 526 327 440 c 2,35,-1
 324 286 l 1,36,-1
 492 605 l 2,37,38
 502 625 502 625 520 625 c 0,39,40
 521 625 521 625 522 625 c 0,41,42
 553 625 553 625 553 595 c 0,0,1
EndSplineSet
Validated: 1
EndChar

StartChar: N
Encoding: 78 78 46
Width: 500
GlyphClass: 2
Flags: W
LayerCount: 2
Fore
SplineSet
586 595 m 0,0,1
 586 590 586 590 585 586 c 2,2,-1
 435 28 l 2,3,4
 427 0 427 0 404 0 c 256,5,6
 380 0 380 0 372 28 c 2,7,-1
 262 469 l 1,8,-1
 142 23 l 2,9,10
 136 0 136 0 113 0 c 0,11,12
 81 0 81 0 81 30 c 0,13,14
 81 35 81 35 82 39 c 2,15,-1
 232 598 l 2,16,17
 240 625 240 625 261 625 c 0,18,19
 262 625 262 625 263 625 c 256,20,21
 287 625 287 625 295 597 c 2,22,-1
 405 156 l 1,23,-1
 525 602 l 2,24,25
 531 625 531 625 554 625 c 0,26,27
 586 625 586 625 586 595 c 0,0,1
EndSplineSet
Validated: 1
EndChar

StartChar: O
Encoding: 79 79 47
Width: 500
GlyphClass: 2
Flags: W
LayerCount: 2
Fore
SplineSet
565 427 m 0,0,1
 565 286 565 286 483 152 c 0,2,3
 390 0 390 0 258 0 c 0,4,5
 177 0 177 0 137 61 c 0,6,7
 102 113 102 113 102 198 c 0,8,9
 102 338 102 338 184 472 c 0,10,11
 277 624 277 624 409 625 c 0,12,13
 490 625 490 625 530 564 c 0,14,15
 565 512 565 512 565 427 c 0,0,1
505 419 m 0,16,17
 505 472 505 472 484 512 c 0,18,19
 458 562 458 562 409 562 c 0,20,21
 354 562 354 562 294 506 c 0,22,23
 209 426 209 426 176 305 c 0,24,25
 162 253 162 253 162 206 c 0,26,27
 162 152 162 152 183 112 c 0,28,29
 209 62 209 62 258 62 c 0,30,31
 314 62 314 62 373 119 c 0,32,33
 458 199 458 199 491 321 c 0,34,35
 505 373 505 373 505 419 c 0,16,17
EndSplineSet
Validated: 1
EndChar

StartChar: P
Encoding: 80 80 48
Width: 500
GlyphClass: 2
Flags: W
LayerCount: 2
Fore
SplineSet
569 483 m 0,0,1
 569 388 569 388 500 319 c 128,-1,2
 431 250 431 250 336 250 c 2,3,-1
 183 250 l 1,4,-1
 122 23 l 2,5,6
 116 0 116 0 93 0 c 0,7,8
 61 0 61 0 61 30 c 0,9,10
 61 34 61 34 213 602 c 0,11,12
 215 610 215 610 224.5 617.5 c 128,-1,13
 234 625 234 625 243 625 c 2,14,-1
 420 625 l 2,15,16
 488 625 488 625 528 588 c 0,17,18
 569 550 569 550 569 483 c 0,0,1
508 482 m 0,19,20
 508 562 508 562 420 562 c 2,21,-1
 267 562 l 1,22,-1
 200 312 l 1,23,-1
 336 312 l 2,24,25
 403 312 403 312 455.5 364 c 128,-1,26
 508 416 508 416 508 482 c 0,19,20
EndSplineSet
Validated: 1
EndChar

StartChar: Q
Encoding: 81 81 49
Width: 500
GlyphClass: 2
Flags: W
LayerCount: 2
Fore
SplineSet
564 427 m 0,0,1
 564 297 564 297 493 171 c 0,2,3
 414 29 414 29 298 5 c 1,4,5
 300 -44 300 -44 322 -81 c 0,6,7
 348 -125 348 -125 394 -125 c 0,8,9
 425 -125 425 -125 425 -156 c 256,10,11
 425 -188 425 -188 394 -188 c 0,12,13
 319 -188 319 -188 277 -129 c 0,14,15
 242 -79 242 -79 237 1 c 1,16,17
 165 9 165 9 130 70 c 0,18,19
 101 120 101 120 101 201 c 0,20,21
 101 339 101 339 182 472 c 0,22,23
 276 624 276 624 408 625 c 0,24,25
 489 625 489 625 529 564 c 0,26,27
 564 512 564 512 564 427 c 0,0,1
504 419 m 0,28,29
 504 472 504 472 482 512 c 0,30,31
 456 562 456 562 408 562 c 0,32,33
 355 562 355 562 297 510 c 0,34,35
 210 431 210 431 175 305 c 0,36,37
 161 253 161 253 161 206 c 0,38,39
 162 158 162 158 178 121 c 0,40,41
 199 75 199 75 239 65 c 1,42,43
 243 106 243 106 247 120 c 0,44,45
 257 156 257 156 281 156 c 0,46,47
 313 156 313 156 313 126 c 0,48,49
 313 118 313 118 309 100 c 0,50,51
 304 79 304 79 302 72 c 1,52,53
 387 108 387 108 448 218 c 0,54,55
 504 322 504 322 504 419 c 0,28,29
EndSplineSet
Validated: 1
EndChar

StartChar: R
Encoding: 82 82 50
Width: 500
GlyphClass: 2
Flags: W
LayerCount: 2
Fore
SplineSet
570 478 m 0,0,1
 570 389 570 389 497.5 319.5 c 128,-1,2
 425 250 425 250 335 250 c 2,3,-1
 303 250 l 1,4,-1
 450 50 l 2,5,6
 457 41 457 41 457 31 c 0,7,8
 457 19 457 19 447 9.5 c 128,-1,9
 437 0 437 0 424 -0 c 0,10,11
 409 0 409 0 400 13 c 2,12,-1
 220 258 l 2,13,14
 210 272 210 272 210 281 c 0,15,16
 210 312 210 312 248 312 c 2,17,-1
 335 312 l 2,18,19
 402 312 402 312 454.5 363.5 c 128,-1,20
 507 415 507 415 507 482 c 0,21,22
 507 562 507 562 419 562 c 2,23,-1
 266 562 l 1,24,-1
 122 23 l 2,25,26
 116 0 116 0 92 0 c 0,27,28
 60 0 60 0 60 30 c 0,29,30
 60 35 60 35 61 39 c 2,31,-1
 211 600 l 2,32,33
 218 625 218 625 244 625 c 2,34,-1
 419 625 l 2,35,36
 485 625 485 625 527.5 584 c 128,-1,37
 570 543 570 543 570 478 c 0,0,1
EndSplineSet
Validated: 1
EndChar

StartChar: S
Encoding: 83 83 51
Width: 500
GlyphClass: 2
Flags: W
LayerCount: 2
Fore
SplineSet
550 531 m 0,0,1
 550 518 550 518 540 509 c 128,-1,2
 530 500 530 500 517 500 c 0,3,4
 502 500 502 500 490 518 c 0,5,6
 460 562 460 562 396 562 c 0,7,8
 294 562 294 562 247 490 c 0,9,10
 231 465 231 465 230 441 c 0,11,12
 230 375 230 375 329 375 c 0,13,14
 405 375 405 375 460 337 c 0,15,16
 523 294 523 294 524 221 c 0,17,18
 524 126 524 126 430 60 c 0,19,20
 345 0 345 0 245 0 c 0,21,22
 187 0 187 0 140 22 c 0,23,24
 86 48 86 48 64 96 c 0,25,26
 61 103 61 103 60 110 c 0,27,28
 60 141 60 141 93 141 c 0,29,30
 108 141 108 141 117 129 c 2,31,32
 132 105 l 1,33,34
 169 62 169 62 245 62 c 0,35,36
 303 62 303 62 355 86 c 0,37,38
 410 111 410 111 439 158 c 0,39,40
 459 190 459 190 460 222 c 0,41,42
 460 270 460 270 416 294 c 0,43,44
 381 312 381 312 329 312 c 0,45,46
 267 312 267 312 219 345 c 0,47,48
 167 381 167 381 167 442 c 0,49,50
 167 521 167 521 244 575 c 0,51,52
 314 625 314 625 396 625 c 0,53,54
 508 625 508 625 546 545 c 0,55,56
 550 538 550 538 550 531 c 0,0,1
EndSplineSet
Validated: 1
EndChar

StartChar: T
Encoding: 84 84 52
Width: 500
GlyphClass: 2
Flags: W
LayerCount: 2
Fore
SplineSet
628 594 m 256,0,1
 628 562 628 562 597 562 c 2,2,-1
 433 562 l 1,3,-1
 289 23 l 2,4,5
 283 0 283 0 259 0 c 0,6,7
 227 0 227 0 227 30 c 0,8,9
 227 35 227 35 228 39 c 2,10,-1
 368 562 l 1,11,-1
 222 562 l 2,12,13
 191 562 191 562 190 594 c 256,14,15
 190 625 190 625 222 625 c 2,16,-1
 597 625 l 2,17,18
 628 625 628 625 628 594 c 256,0,1
EndSplineSet
Validated: 1
EndChar

StartChar: U
Encoding: 85 85 53
Width: 500
GlyphClass: 2
Flags: W
LayerCount: 2
Fore
SplineSet
608 595 m 0,0,1
 608 590 608 590 606 586 c 2,2,-1
 500 190 l 2,3,4
 479 110 479 110 410 56 c 0,5,6
 340 0 340 0 258 0 c 0,7,8
 189 0 189 0 144 43 c 128,-1,9
 99 86 99 86 99 155 c 0,10,11
 99 180 99 180 106 206 c 2,12,-1
 212 602 l 2,13,14
 218 625 218 625 242 625 c 0,15,16
 274 625 274 625 274 595 c 0,17,18
 274 590 274 590 273 586 c 2,19,-1
 167 190 l 2,20,21
 162 171 162 171 162 155 c 0,22,23
 162 113 162 113 189 87.5 c 128,-1,24
 216 62 216 62 258 62 c 0,25,26
 318 62 318 62 372 105 c 0,27,28
 424 147 424 147 440 206 c 2,29,-1
 546 602 l 2,30,31
 552 625 552 625 575 625 c 0,32,33
 608 625 608 625 608 595 c 0,0,1
EndSplineSet
Validated: 1
EndChar

StartChar: V
Encoding: 86 86 54
Width: 500
GlyphClass: 2
Flags: W
LayerCount: 2
Fore
SplineSet
629 595 m 0,0,1
 629 586 629 586 624 578 c 2,2,-1
 288 20 l 2,3,4
 276 0 276 0 260 -0 c 0,5,6
 230 0 230 0 228 34 c 2,7,-1
 191 594 l 1,8,9
 191 600 l 2,10,11
 191 625 191 625 220 625 c 0,12,13
 221 625 221 625 222 625 c 0,14,15
 251 625 251 625 253 596 c 2,16,-1
 284 133 l 1,17,-1
 570 610 l 2,18,19
 579 625 579 625 596 625 c 0,20,21
 608 625 608 625 618.5 616 c 128,-1,22
 629 607 629 607 629 595 c 0,0,1
EndSplineSet
Validated: 1
EndChar

StartChar: W
Encoding: 87 87 55
Width: 500
GlyphClass: 2
Flags: W
LayerCount: 2
Fore
SplineSet
618.5 616.5 m 128,-1,1
 628 608 628 608 628 598 c 128,-1,2
 628 588 628 588 625 581 c 2,3,-1
 382 22 l 2,4,5
 372 0 372 0 353 0 c 0,6,7
 321 0 321 0 321 30 c 1,8,9
 322 46 322 46 325 273 c 1,10,-1
 194 20 l 2,11,12
 184 0 184 0 166 -0 c 0,13,14
 134 0 134 0 134 30 c 0,15,16
 134 33 134 33 191 597 c 0,17,18
 194 625 194 625 221 625 c 0,19,20
 253 625 253 625 253 595 c 1,21,-1
 212 191 l 1,22,-1
 329 417 l 2,23,24
 340 438 340 438 358 438 c 0,25,26
 390 438 390 438 391 407 c 1,27,28
 390 388 390 388 386 188 c 1,29,-1
 568 606 l 2,30,31
 576 625 576 625 592.5 625 c 128,-1,0
 609 625 609 625 618.5 616.5 c 128,-1,1
EndSplineSet
Validated: 1
EndChar

StartChar: X
Encoding: 88 88 56
Width: 500
GlyphClass: 2
Flags: W
LayerCount: 2
Fore
SplineSet
629 594 m 0,0,1
 629 582 629 582 620 572 c 2,2,-1
 370 306 l 1,3,-1
 475 43 l 2,4,5
 478 37 478 37 478 30 c 0,6,7
 478 17 478 17 468 8.5 c 128,-1,8
 458 0 458 0 445 -0 c 0,9,10
 425 0 425 0 417 20 c 2,11,-1
 323 255 l 1,12,-1
 94 10 l 2,13,14
 84 0 84 0 71 -0 c 0,15,16
 59 0 59 0 49 9.5 c 128,-1,17
 39 19 39 19 39 31 c 0,18,19
 39 42 39 42 48 52 c 2,20,-1
 298 319 l 1,21,-1
 192 582 l 2,22,23
 190 588 190 588 190 595 c 0,24,25
 190 608 190 608 200 616.5 c 128,-1,26
 210 625 210 625 223 625 c 0,27,28
 243 625 243 625 251 605 c 2,29,-1
 345 370 l 1,30,-1
 574 615 l 2,31,32
 584 625 584 625 596 625 c 256,33,34
 609 625 609 625 619 616 c 128,-1,35
 629 607 629 607 629 594 c 0,0,1
EndSplineSet
Validated: 1
EndChar

StartChar: Y
Encoding: 89 89 57
Width: 500
GlyphClass: 2
Flags: W
LayerCount: 2
Fore
SplineSet
629 594 m 0,0,1
 629 582 629 582 620 572 c 2,2,-1
 362 297 l 1,3,-1
 289 23 l 2,4,5
 283 0 283 0 259 0 c 0,6,7
 227 0 227 0 227 30 c 0,8,9
 227 35 227 35 228 39 c 2,10,-1
 301 310 l 1,11,-1
 192 582 l 2,12,13
 190 588 190 588 190 595 c 0,14,15
 190 608 190 608 200 616.5 c 128,-1,16
 210 625 210 625 223 625 c 0,17,18
 243 625 243 625 251 605 c 2,19,-1
 345 370 l 1,20,-1
 574 615 l 2,21,22
 584 625 584 625 596 625 c 256,23,24
 609 625 609 625 619 616 c 128,-1,25
 629 607 629 607 629 594 c 0,0,1
EndSplineSet
Validated: 1
EndChar

StartChar: Z
Encoding: 90 90 58
Width: 500
GlyphClass: 2
Flags: W
LayerCount: 2
Fore
SplineSet
628 594 m 0,0,1
 628 582 628 582 615 568 c 2,2,-1
 143 62 l 1,3,-1
 446 62 l 2,4,5
 477 62 477 62 477 31 c 256,6,7
 477 0 477 0 446 0 c 2,8,-1
 72 -0 l 2,9,10
 40 0 40 0 39 31 c 0,11,12
 39 43 39 43 52 57 c 2,13,-1
 525 562 l 1,14,-1
 222 562 l 2,15,16
 191 562 191 562 190 594 c 256,17,18
 190 625 190 625 222 625 c 2,19,-1
 596 625 l 2,20,21
 597 625 597 625 598 625 c 0,22,23
 628 625 628 625 628 594 c 0,0,1
EndSplineSet
Validated: 1
EndChar

StartChar: bracketleft
Encoding: 91 91 59
Width: 500
GlyphClass: 2
Flags: W
LayerCount: 2
Fore
SplineSet
600 769 m 256,0,1
 600 738 600 738 569 738 c 2,2,-1
 406 738 l 1,3,-1
 222 50 l 1,4,-1
 368 50 l 2,5,6
 399 50 399 50 400 19 c 256,7,8
 400 -12 400 -12 368 -12 c 2,9,-1
 181 -12 l 2,10,11
 149 -12 149 -12 149 17 c 0,12,13
 149 22 149 22 150 27 c 2,14,-1
 352 777 l 2,15,16
 354 785 354 785 363.5 792.5 c 128,-1,17
 373 800 373 800 382 800 c 2,18,-1
 569 800 l 2,19,20
 600 800 600 800 600 769 c 256,0,1
EndSplineSet
Validated: 1
EndChar

StartChar: backslash
Encoding: 92 92 60
Width: 500
GlyphClass: 2
Flags: W
LayerCount: 2
Fore
SplineSet
427 -158 m 0,0,1
 427 -188 427 -188 395 -188 c 0,2,3
 371 -188 371 -188 365 -164 c 2,4,-1
 191 587 l 2,5,6
 190 591 190 591 190 595 c 0,7,8
 190 625 190 625 222 625 c 0,9,10
 246 625 246 625 252 601 c 2,11,-1
 426 -150 l 2,12,13
 427 -153 427 -153 427 -158 c 0,0,1
EndSplineSet
Validated: 1
EndChar

StartChar: bracketright
Encoding: 93 93 61
Width: 500
GlyphClass: 2
Flags: W
LayerCount: 2
Fore
SplineSet
535 583 m 0,0,1
 535 578 535 578 533 573 c 2,2,-1
 332 -177 l 2,3,4
 330 -185 330 -185 320.5 -192.5 c 128,-1,5
 311 -200 311 -200 302 -200 c 2,6,-1
 115 -200 l 2,7,8
 84 -200 84 -200 83 -169 c 256,9,10
 83 -138 83 -138 115 -138 c 2,11,-1
 278 -138 l 1,12,-1
 462 550 l 1,13,-1
 315 550 l 2,14,15
 284 550 284 550 284 581 c 256,16,17
 284 612 284 612 315 612 c 2,18,-1
 503 612 l 2,19,20
 535 612 535 612 535 583 c 0,0,1
EndSplineSet
Validated: 1
EndChar

StartChar: asciicircum
Encoding: 94 94 62
Width: 500
GlyphClass: 2
Flags: W
LayerCount: 2
Fore
SplineSet
532 468 m 0,0,1
 532 456 532 456 522 446.5 c 128,-1,2
 512 437 512 437 500 437 c 0,3,4
 485 437 485 437 475 450 c 2,5,-1
 403 549 l 1,6,-1
 270 444 l 2,7,8
 261 437 261 437 250 437 c 0,9,10
 237 437 237 437 228 447 c 128,-1,11
 219 457 219 457 219 470 c 0,12,13
 219 484 219 484 231 493 c 2,14,-1
 390 618 l 2,15,16
 399 625 399 625 410 625 c 0,17,18
 425 625 425 625 435 612 c 2,19,-1
 526 487 l 2,20,21
 532 478 532 478 532 468 c 0,0,1
EndSplineSet
Validated: 1
EndChar

StartChar: underscore
Encoding: 95 95 63
Width: 500
GlyphClass: 2
Flags: W
LayerCount: 2
Fore
SplineSet
424 -169 m 256,0,1
 424 -200 424 -200 392 -200 c 2,2,-1
 18 -200 l 2,3,4
 -13 -200 -13 -200 -14 -169 c 256,5,6
 -14 -138 -14 -138 18 -138 c 2,7,-1
 392 -138 l 2,8,9
 424 -138 424 -138 424 -169 c 256,0,1
EndSplineSet
Validated: 1
EndChar

StartChar: grave
Encoding: 96 96 64
Width: 500
GlyphClass: 2
Flags: W
LayerCount: 2
Fore
SplineSet
352 615 m 0,0,1
 389 615 389 615 428.5 549 c 128,-1,2
 468 483 468 483 468 450.5 c 128,-1,3
 468 418 468 418 430 418 c 0,4,5
 407 418 407 418 401 444 c 0,6,7
 384 519 384 519 335 556 c 0,8,9
 316 571 316 571 316 588 c 128,-1,10
 316 605 316 605 337 613 c 0,11,12
 344 615 344 615 352 615 c 0,0,1
EndSplineSet
Validated: 1
EndChar

StartChar: a
Encoding: 97 97 65
Width: 500
GlyphClass: 2
Flags: W
LayerCount: 2
Fore
SplineSet
575 406 m 0,0,1
 555 337 555 337 455 23 c 0,2,3
 447 0 447 0 426 0 c 0,4,5
 392 0 392 0 392 21 c 0,6,7
 392 25 392 25 394 30 c 0,8,9
 408 84 408 84 419 112 c 1,10,11
 308 1 308 1 228 0 c 0,12,13
 227 0 227 0 226 0 c 0,14,15
 178 0 178 0 132 43 c 0,16,17
 99 74 99 74 99 153 c 0,18,19
 99 181 99 181 106 206 c 0,20,21
 134 304 134 304 216 370 c 0,22,23
 301 438 301 438 405 438 c 0,24,25
 407 438 407 438 408 438 c 0,26,27
 554 438 554 438 562 434 c 0,28,29
 576 427 576 427 576 415 c 0,30,31
 576 411 576 411 575 406 c 0,0,1
500 374 m 1,32,33
 450 374 450 374 401 375 c 0,34,35
 324 375 324 375 255 320 c 0,36,37
 185 264 185 264 167 190 c 0,38,39
 162 171 162 171 162 155 c 0,40,41
 162 105 162 105 189 80 c 0,42,43
 213 58 213 58 237 58 c 0,44,45
 247 58 247 58 258 62 c 0,46,47
 286 73 286 73 367 132 c 0,48,49
 442 186 442 186 463 254 c 2,50,-1
 500 374 l 1,32,33
EndSplineSet
Validated: 1
EndChar

StartChar: b
Encoding: 98 98 66
Width: 500
GlyphClass: 2
Flags: W
LayerCount: 2
Fore
SplineSet
518 283 m 0,0,1
 518 258 518 258 511 232 c 0,2,3
 484 135 484 135 401 68 c 0,4,5
 316 0 316 0 217 0 c 0,6,7
 162 0 162 0 126 34.5 c 128,-1,8
 90 69 90 69 90 124 c 0,9,10
 90 141 90 141 94 153 c 1,11,12
 94 160 94 160 118 248 c 2,13,-1
 212 602 l 2,14,15
 218 625 218 625 242 625 c 0,16,17
 274 625 274 625 274 595 c 0,18,19
 274 590 274 590 220 391 c 1,20,21
 286 438 286 438 359 438 c 0,22,23
 428 438 428 438 473 395 c 0,24,25
 518 351 518 351 518 283 c 0,0,1
456 283 m 0,26,27
 456 325 456 325 429 350 c 128,-1,28
 402 375 402 375 359 375 c 0,29,30
 299 375 299 375 246.5 333 c 128,-1,31
 194 291 194 291 178 232 c 0,32,33
 152 137 152 137 152 124 c 0,34,35
 152 62 152 62 217 62 c 0,36,37
 294 62 294 62 362.5 117 c 128,-1,38
 431 172 431 172 451 248 c 0,39,40
 456 268 456 268 456 283 c 0,26,27
EndSplineSet
Validated: 1
EndChar

StartChar: c
Encoding: 99 99 67
Width: 500
GlyphClass: 2
Flags: W
LayerCount: 2
Fore
SplineSet
564 352 m 0,0,1
 564 339 564 339 554 329.5 c 128,-1,2
 544 320 544 320 531 320 c 0,3,4
 520 320 520 320 509 330 c 0,5,6
 461 375 461 375 391 375 c 0,7,8
 323 375 323 375 265 344 c 0,9,10
 204 312 204 312 171 254 c 0,11,12
 148 214 148 214 148 173 c 0,13,14
 148 116 148 116 193 87 c 0,15,16
 231 62 231 62 291 62 c 0,17,18
 362 62 362 62 442 112 c 0,19,20
 452 118 452 118 461 118 c 0,21,22
 474 118 474 118 483 108 c 128,-1,23
 492 98 492 98 492 85 c 0,24,25
 492 71 492 71 478 60 c 0,26,27
 445 33 445 33 389 16 c 0,28,29
 337 0 337 0 291 0 c 0,30,31
 208 0 208 0 148 45 c 0,32,33
 84 95 84 95 84 176 c 0,34,35
 84 285 84 285 185 364 c 0,36,37
 279 438 279 438 391 438 c 0,38,39
 501 438 501 438 555 372 c 0,40,41
 564 362 564 362 564 352 c 0,0,1
EndSplineSet
Validated: 1
EndChar

StartChar: d
Encoding: 100 100 68
Width: 500
GlyphClass: 2
Flags: W
LayerCount: 2
Fore
SplineSet
608 595 m 0,0,1
 608 590 608 590 606 586 c 2,2,-1
 455 23 l 2,3,4
 449 0 449 0 426 0 c 0,5,6
 394 0 394 0 394 30 c 0,7,8
 394 35 394 35 397 47 c 1,9,10
 331 0 331 0 258 0 c 0,11,12
 189 0 189 0 144 43 c 128,-1,13
 99 86 99 86 99 155 c 0,14,15
 99 181 99 181 106 206 c 0,16,17
 134 304 134 304 217 370 c 0,18,19
 302 438 302 438 401 438 c 0,20,21
 452 438 452 438 496 417 c 1,22,-1
 546 602 l 2,23,24
 552 625 552 625 575 625 c 0,25,26
 608 625 608 625 608 595 c 0,0,1
480 355 m 1,27,28
 451 375 451 375 401 375 c 0,29,30
 324 375 324 375 255 320 c 128,-1,31
 186 265 186 265 167 190 c 0,32,33
 162 171 162 171 162 155 c 0,34,35
 162 113 162 113 189 87.5 c 128,-1,36
 216 62 216 62 258 62 c 0,37,38
 318 62 318 62 371 105 c 128,-1,39
 424 148 424 148 440 206 c 2,40,-1
 480 355 l 1,27,28
EndSplineSet
Validated: 1
EndChar

StartChar: e
Encoding: 101 101 69
Width: 500
GlyphClass: 2
Flags: W
LayerCount: 2
Fore
SplineSet
557 340 m 0,0,1
 557 298 557 298 525 262 c 0,2,3
 497 231 497 231 455 215 c 2,4,-1
 181 110 l 1,5,6
 232 62 232 62 328 62 c 0,7,8
 381 62 381 62 442 82 c 0,9,10
 449 84 449 84 453 84 c 0,11,12
 483 84 483 84 483 52 c 0,13,14
 482 33 482 33 462 23 c 0,15,16
 408 0 408 0 328 0 c 0,17,18
 237 0 237 0 167 43 c 0,19,20
 85 94 85 94 85 180 c 0,21,22
 85 293 85 293 204 370 c 0,23,24
 309 438 309 438 428 438 c 0,25,26
 480 438 480 438 515 415 c 0,27,28
 557 389 557 389 557 340 c 0,0,1
495 339 m 0,29,30
 495 375 495 375 428 375 c 0,31,32
 339 375 339 375 250 325 c 0,33,34
 148 267 148 267 148 185 c 0,35,36
 148 174 148 174 150 165 c 1,37,-1
 432 273 l 2,38,39
 494 297 494 297 495 339 c 0,29,30
EndSplineSet
Validated: 1
EndChar

StartChar: f
Encoding: 102 102 70
Width: 500
GlyphClass: 2
Flags: W
LayerCount: 2
Fore
SplineSet
611 530 m 0,0,1
 611 517 611 517 601 508.5 c 128,-1,2
 591 500 591 500 578 500 c 128,-1,3
 565 500 565 500 553 516 c 0,4,5
 536 541 536 541 528 546 c 0,6,7
 507 562 507 562 471 562 c 0,8,9
 418 562 418 562 370 526 c 0,10,11
 322 490 322 490 306 438 c 1,12,-1
 452 438 l 2,13,14
 483 438 483 438 484 406 c 256,15,16
 484 375 484 375 452 375 c 2,17,-1
 289 375 l 1,18,-1
 144 -164 l 2,19,20
 138 -188 138 -188 115 -188 c 0,21,22
 82 -188 82 -188 82 -158 c 0,23,24
 82 -153 82 -153 84 -148 c 2,25,-1
 224 375 l 1,26,-1
 171 375 l 2,27,28
 140 375 140 375 140 406 c 256,29,30
 140 438 140 438 171 438 c 2,31,-1
 241 438 l 1,32,33
 261 517 261 517 326 571 c 128,-1,34
 391 625 391 625 471 625 c 0,35,36
 515 625 515 625 551 605 c 0,37,38
 590 583 590 583 608 545 c 0,39,40
 612 536 612 536 611 530 c 0,0,1
EndSplineSet
Validated: 1
EndChar

StartChar: g
Encoding: 103 103 71
Width: 500
GlyphClass: 2
Flags: W
LayerCount: 2
Fore
SplineSet
607 406 m 256,0,1
 607 375 607 375 575 375 c 2,2,-1
 490 375 l 1,3,4
 510 346 510 346 510 310 c 0,5,6
 510 262 510 262 479 219 c 0,7,8
 451 180 451 180 406 155 c 1,9,10
 473 111 473 111 473 35 c 0,11,12
 473 -58 473 -58 385 -125 c 0,13,14
 304 -188 304 -188 208 -188 c 0,15,16
 135 -188 135 -188 83 -149 c 0,17,18
 26 -106 26 -106 26 -35 c 0,19,20
 26 31 26 31 61 31 c 0,21,22
 93 31 93 31 94 1 c 0,23,24
 94 -5 94 -5 91 -16 c 0,25,26
 89 -28 89 -28 89 -33 c 0,27,28
 90 -78 90 -78 128 -104 c 0,29,30
 160 -125 160 -125 208 -125 c 0,31,32
 263 -125 263 -125 312 -100 c 0,33,34
 363 -74 363 -74 390 -28 c 0,35,36
 409 5 409 5 409 37 c 0,37,38
 409 83 409 83 372 106 c 0,39,40
 341 125 341 125 292 125 c 0,41,42
 232 126 232 126 188 158 c 0,43,44
 140 194 140 194 140 253 c 0,45,46
 140 330 140 330 212 386 c 0,47,48
 279 438 279 438 359 438 c 2,49,-1
 575 438 l 2,50,51
 607 438 607 438 607 406 c 256,0,1
447 310 m 0,52,53
 447 375 447 375 359 375 c 0,54,55
 304 375 304 375 256 341 c 0,56,57
 204 304 204 304 203 252 c 0,58,59
 203 188 203 188 292 188 c 0,60,61
 347 188 347 188 395 221 c 0,62,63
 447 258 447 258 447 310 c 0,52,53
EndSplineSet
Validated: 1
EndChar

StartChar: h
Encoding: 104 104 72
Width: 500
GlyphClass: 2
Flags: W
LayerCount: 2
Fore
SplineSet
510 290 m 0,0,1
 510 265 510 265 503 242 c 2,2,-1
 445 23 l 2,3,4
 439 0 439 0 415 0 c 0,5,6
 383 0 383 0 383 30 c 0,7,8
 383 35 383 35 384 39 c 2,9,-1
 443 258 l 2,10,11
 448 275 448 275 448 291 c 0,12,13
 448 330 448 330 423 352.5 c 128,-1,14
 398 375 398 375 359 375 c 0,15,16
 304 375 304 375 254.5 335.5 c 128,-1,17
 205 296 205 296 191 242 c 2,18,-1
 132 23 l 2,19,20
 126 0 126 0 102 0 c 0,21,22
 70 0 70 0 70 30 c 0,23,24
 70 35 70 35 72 39 c 2,25,-1
 222 602 l 2,26,27
 228 625 228 625 252 625 c 0,28,29
 284 625 284 625 284 595 c 0,30,31
 284 590 284 590 232 396 c 1,32,33
 293 438 293 438 359 438 c 256,34,35
 425 438 425 438 467.5 396.5 c 128,-1,36
 510 355 510 355 510 290 c 0,0,1
EndSplineSet
Validated: 1
EndChar

StartChar: i
Encoding: 105 105 73
Width: 500
GlyphClass: 2
Flags: W
LayerCount: 2
Fore
SplineSet
453 581 m 0,0,1
 453 560 453 560 437.5 545.5 c 128,-1,2
 422 531 422 531 401 531 c 0,3,4
 383 531 383 531 370 543 c 128,-1,5
 357 555 357 555 357 574 c 0,6,7
 357 594 357 594 372.5 609.5 c 128,-1,8
 388 625 388 625 409 625 c 0,9,10
 428 625 428 625 440.5 612.5 c 128,-1,11
 453 600 453 600 453 581 c 0,0,1
327 0 m 0,12,13
 249 0 249 0 249 83 c 0,14,15
 249 117 249 117 262 164 c 2,16,-1
 318 375 l 1,17,-1
 234 375 l 2,18,19
 203 375 203 375 203 406 c 256,20,21
 203 438 203 438 234 438 c 2,22,-1
 360 438 l 2,23,24
 390 438 390 438 390 407 c 2,25,26
 390 403 390 403 388 395 c 2,27,-1
 322 148 l 2,28,29
 312 112 312 112 312 92 c 0,30,31
 312 60 312 60 335 60 c 0,32,33
 360 60 360 60 360 32 c 0,34,35
 360 0 360 0 327 0 c 0,12,13
EndSplineSet
Validated: 1
EndChar

StartChar: j
Encoding: 106 106 74
Width: 500
GlyphClass: 2
Flags: W
LayerCount: 2
Fore
SplineSet
612 581 m 0,0,1
 612 560 612 560 596 545.5 c 128,-1,2
 580 531 580 531 560 531 c 0,3,4
 542 531 542 531 528.5 543 c 128,-1,5
 515 555 515 555 515 574 c 0,6,7
 515 594 515 594 531 609.5 c 128,-1,8
 547 625 547 625 568 625 c 0,9,10
 587 625 587 625 599.5 612.5 c 128,-1,11
 612 600 612 600 612 581 c 0,0,1
549 407 m 0,12,13
 549 402 549 402 547 395 c 2,14,-1
 448 23 l 2,15,16
 424 -65 424 -65 348 -126 c 0,17,18
 270 -188 270 -188 180 -188 c 0,19,20
 132 -188 132 -188 90 -166 c 0,21,22
 46 -143 46 -143 25 -102 c 0,23,24
 20 -93 20 -93 20 -86 c 0,25,26
 20 -73 20 -73 30 -64 c 128,-1,27
 40 -55 40 -55 53 -55 c 0,28,29
 69 -55 69 -55 80 -72 c 0,30,31
 113 -125 113 -125 180 -125 c 0,32,33
 248 -125 248 -125 309 -76 c 0,34,35
 369 -28 369 -28 387 39 c 2,36,-1
 477 375 l 1,37,-1
 393 375 l 2,38,39
 362 375 362 375 362 406 c 256,40,41
 362 438 362 438 393 438 c 2,42,-1
 518 438 l 2,43,44
 549 438 549 438 549 407 c 0,12,13
EndSplineSet
Validated: 1
EndChar

StartChar: k
Encoding: 107 107 75
Width: 500
GlyphClass: 2
Flags: W
LayerCount: 2
Fore
SplineSet
557 405 m 0,0,1
 557 388 557 388 541 379 c 2,2,-1
 258 214 l 1,3,-1
 445 55 l 2,4,5
 457 45 457 45 457 32 c 0,6,7
 457 20 457 20 447.5 10 c 128,-1,8
 438 0 438 0 425 -0 c 0,9,10
 414 0 414 0 405 8 c 2,11,-1
 188 192 l 2,12,13
 175 203 175 203 173 214 c 1,14,-1
 122 23 l 2,15,16
 116 0 116 0 92 0 c 0,17,18
 60 0 60 0 60 30 c 0,19,20
 60 35 60 35 61 39 c 2,21,-1
 212 602 l 2,22,23
 218 625 218 625 241 625 c 0,24,25
 273 625 273 625 274 595 c 0,26,27
 274 590 274 590 272 586 c 2,28,-1
 179 238 l 1,29,30
 182 242 182 242 192 248 c 2,31,-1
 510 433 l 2,32,33
 518 438 518 438 526 438 c 0,34,35
 539 438 539 438 548 428 c 128,-1,36
 557 418 557 418 557 405 c 0,0,1
EndSplineSet
Validated: 1
EndChar

StartChar: l
Encoding: 108 108 76
Width: 500
GlyphClass: 2
Flags: W
LayerCount: 2
Fore
SplineSet
447 93 m 0,0,1
 447 81 447 81 437 71 c 0,2,3
 368 0 368 0 273 0 c 0,4,5
 208 0 208 0 165 41 c 128,-1,6
 122 82 122 82 122 147 c 0,7,8
 122 171 122 171 129 196 c 2,9,-1
 238 602 l 2,10,11
 244 625 244 625 267 625 c 0,12,13
 299 625 299 625 300 595 c 0,14,15
 300 590 300 590 298 586 c 2,16,-1
 189 180 l 2,17,18
 185 166 185 166 185 152 c 0,19,20
 185 149 185 149 185 147 c 0,21,22
 185 108 185 108 210 85 c 0,23,24
 234 62 234 62 273 62 c 0,25,26
 332 62 332 62 393 116 c 0,27,28
 403 125 403 125 415 125 c 0,29,30
 428 125 428 125 437.5 115.5 c 128,-1,31
 447 106 447 106 447 93 c 0,0,1
EndSplineSet
Validated: 1
EndChar

StartChar: m
Encoding: 109 109 77
Width: 500
GlyphClass: 2
Flags: W
LayerCount: 2
Fore
SplineSet
556 337 m 0,0,1
 556 320 556 320 552 305 c 2,2,-1
 476 23 l 2,3,4
 470 0 470 0 447 0 c 0,5,6
 415 0 415 0 415 30 c 0,7,8
 415 35 415 35 416 39 c 2,9,-1
 491 320 l 2,10,11
 493 328 493 328 493 337 c 0,12,13
 493 375 493 375 453 375 c 0,14,15
 424 375 424 375 398 354 c 128,-1,16
 372 333 372 333 364 305 c 2,17,-1
 289 23 l 2,18,19
 283 0 283 0 259 0 c 0,20,21
 227 0 227 0 227 30 c 0,22,23
 227 35 227 35 228 39 c 2,24,-1
 304 320 l 2,25,26
 306 329 306 329 306 337 c 0,27,28
 306 375 306 375 265 375 c 0,29,30
 236 375 236 375 210 354 c 128,-1,31
 184 333 184 333 177 305 c 2,32,-1
 101 23 l 2,33,34
 95 0 95 0 72 0 c 0,35,36
 40 0 40 0 40 30 c 0,37,38
 40 35 40 35 41 39 c 2,39,-1
 141 414 l 2,40,41
 147 438 147 438 170 438 c 0,42,43
 190 438 190 438 200 421 c 1,44,45
 232 438 232 438 265 438 c 0,46,47
 321 438 321 438 350 395 c 1,48,49
 396 438 396 438 453 438 c 0,50,51
 498 438 498 438 527 409.5 c 128,-1,52
 556 381 556 381 556 337 c 0,0,1
EndSplineSet
Validated: 1
EndChar

StartChar: n
Encoding: 110 110 78
Width: 500
GlyphClass: 2
Flags: W
LayerCount: 2
Fore
SplineSet
510 290 m 0,0,1
 510 265 510 265 504 242 c 2,2,-1
 445 23 l 2,3,4
 439 0 439 0 416 0 c 0,5,6
 384 0 384 0 383 30 c 0,7,8
 383 35 383 35 385 39 c 2,9,-1
 443 258 l 2,10,11
 448 275 448 275 448 291 c 0,12,13
 448 330 448 330 423 352.5 c 128,-1,14
 398 375 398 375 359 375 c 0,15,16
 304 375 304 375 255 335.5 c 128,-1,17
 206 296 206 296 191 242 c 2,18,-1
 132 23 l 2,19,20
 126 0 126 0 103 0 c 0,21,22
 71 0 71 0 71 30 c 0,23,24
 71 35 71 35 72 39 c 2,25,-1
 172 414 l 2,26,27
 178 438 178 438 202 438 c 0,28,29
 234 438 234 438 234 408 c 0,30,31
 234 403 234 403 232 396 c 1,32,33
 293 438 293 438 359 438 c 256,34,35
 425 438 425 438 467.5 396.5 c 128,-1,36
 510 355 510 355 510 290 c 0,0,1
EndSplineSet
Validated: 1
EndChar

StartChar: o
Encoding: 111 111 79
Width: 500
GlyphClass: 2
Flags: W
LayerCount: 2
Fore
SplineSet
534 267 m 0,0,1
 534 162 534 162 448.5 81 c 128,-1,2
 363 0 363 0 258 0 c 0,3,4
 182 0 182 0 132.5 47.5 c 128,-1,5
 83 95 83 95 83 170 c 0,6,7
 83 275 83 275 169 357 c 0,8,9
 254 438 254 438 359 438 c 0,10,11
 435 438 435 438 484.5 390.5 c 128,-1,12
 534 343 534 343 534 267 c 0,0,1
470 272 m 0,13,14
 470 322 470 322 440 349 c 0,15,16
 410 375 410 375 359 375 c 0,17,18
 276 375 276 375 211.5 312 c 128,-1,19
 147 249 147 249 147 166 c 0,20,21
 147 116 147 116 178 88 c 0,22,23
 208 62 208 62 258 62 c 0,24,25
 341 62 341 62 405.5 125.5 c 128,-1,26
 470 189 470 189 470 272 c 0,13,14
EndSplineSet
Validated: 1
EndChar

StartChar: p
Encoding: 112 112 80
Width: 500
GlyphClass: 2
Flags: W
LayerCount: 2
Fore
SplineSet
518 282 m 0,0,1
 518 256 518 256 511 232 c 0,2,3
 483 134 483 134 401 68 c 0,4,5
 316 0 316 0 217 0 c 0,6,7
 166 0 166 0 121 21 c 1,8,-1
 72 -164 l 2,9,10
 66 -188 66 -188 42 -188 c 0,11,12
 10 -188 10 -188 10 -158 c 0,13,14
 10 -153 10 -153 162 414 c 0,15,16
 168 438 168 438 191 438 c 0,17,18
 223 438 223 438 224 408 c 0,19,20
 224 403 224 403 220 391 c 1,21,22
 286 438 286 438 359 438 c 0,23,24
 428 438 428 438 473 394.5 c 128,-1,25
 518 351 518 351 518 282 c 0,0,1
456 283 m 0,26,27
 456 325 456 325 429 350 c 128,-1,28
 402 375 402 375 359 375 c 0,29,30
 299 375 299 375 246.5 332.5 c 128,-1,31
 194 290 194 290 178 232 c 2,32,-1
 138 83 l 1,33,34
 167 62 167 62 217 62 c 0,35,36
 294 62 294 62 362.5 117 c 128,-1,37
 431 172 431 172 451 248 c 0,38,39
 456 268 456 268 456 283 c 0,26,27
EndSplineSet
Validated: 1
EndChar

StartChar: q
Encoding: 113 113 81
Width: 500
GlyphClass: 2
Flags: W
LayerCount: 2
Fore
SplineSet
546 365 m 0,0,1
 546 362 546 362 544 352 c 2,2,-1
 405 -164 l 2,3,4
 399 -188 399 -188 376 -188 c 0,5,6
 344 -188 344 -188 343 -158 c 0,7,8
 343 -153 343 -153 397 47 c 1,9,10
 331 0 331 0 258 0 c 0,11,12
 189 0 189 0 144 43 c 128,-1,13
 99 86 99 86 99 155 c 0,14,15
 99 180 99 180 106 206 c 0,16,17
 133 303 133 303 216 370 c 0,18,19
 301 438 301 438 401 438 c 0,20,21
 493 438 493 438 536 388 c 0,22,23
 546 378 546 378 546 365 c 0,0,1
480 355 m 1,24,25
 451 375 451 375 401 375 c 0,26,27
 324 375 324 375 255 320 c 128,-1,28
 186 265 186 265 167 190 c 0,29,30
 162 171 162 171 162 155 c 0,31,32
 162 113 162 113 189 87.5 c 128,-1,33
 216 62 216 62 258 62 c 0,34,35
 319 62 319 62 371.5 105.5 c 128,-1,36
 424 149 424 149 440 206 c 2,37,-1
 480 355 l 1,24,25
EndSplineSet
Validated: 1
EndChar

StartChar: r
Encoding: 114 114 82
Width: 500
GlyphClass: 2
Flags: W
LayerCount: 2
Fore
SplineSet
538 336 m 0,0,1
 538 323 538 323 528 314 c 128,-1,2
 518 305 518 305 505 305 c 0,3,4
 489 305 489 305 479 322 c 0,5,6
 446 375 446 375 380 375 c 0,7,8
 312 375 312 375 251 326.5 c 128,-1,9
 190 278 190 278 172 211 c 2,10,-1
 122 23 l 2,11,12
 116 0 116 0 92 0 c 0,13,14
 60 0 60 0 60 30 c 0,15,16
 60 33 60 33 112 227 c 2,17,-1
 162 414 l 2,18,19
 168 438 168 438 191 438 c 0,20,21
 223 438 223 438 223 408 c 0,22,23
 223 403 223 403 217 379 c 1,24,25
 294 438 294 438 380 438 c 0,26,27
 428 438 428 438 469 416 c 0,28,29
 513 393 513 393 534 352 c 0,30,31
 538 344 538 344 538 336 c 0,0,1
EndSplineSet
Validated: 1
EndChar

StartChar: s
Encoding: 115 115 83
Width: 500
GlyphClass: 2
Flags: W
LayerCount: 2
Fore
SplineSet
480 165 m 0,0,1
 480 130 480 130 460 97 c 0,2,3
 401 0 401 0 255 0 c 0,4,5
 200 0 200 0 156 21 c 0,6,7
 104 46 104 46 90 92 c 0,8,9
 88 97 88 97 88 103 c 0,10,11
 88 133 88 133 121 133 c 0,12,13
 141 133 141 133 150 111 c 0,14,15
 170 62 170 62 255 62 c 0,16,17
 331 62 331 62 383 102 c 0,18,19
 418 129 418 129 418 160 c 0,20,21
 418 219 418 219 305 219 c 0,22,23
 255 219 255 219 222 239 c 0,24,25
 182 264 182 264 182 311 c 0,26,27
 182 371 182 371 239 406 c 0,28,29
 289 438 289 438 352 438 c 0,30,31
 438 438 438 438 469 384 c 0,32,33
 474 375 474 375 475 367 c 0,34,35
 475 354 475 354 465 345 c 128,-1,36
 455 336 455 336 442 336 c 0,37,38
 437 336 437 336 412 355.5 c 128,-1,39
 387 375 387 375 352 375 c 0,40,41
 320 375 320 375 286 360 c 0,42,43
 244 342 244 342 244 315 c 0,44,45
 244 282 244 282 320 281 c 0,46,47
 384 281 384 281 427 255 c 0,48,49
 480 225 480 225 480 165 c 0,0,1
EndSplineSet
Validated: 1
EndChar

StartChar: t
Encoding: 116 116 84
Width: 500
GlyphClass: 2
Flags: W
LayerCount: 2
Fore
SplineSet
495 93 m 0,0,1
 495 81 495 81 485 71 c 0,2,3
 416 0 416 0 321 0 c 0,4,5
 256 0 256 0 213 41 c 128,-1,6
 170 82 170 82 170 147 c 0,7,8
 170 172 170 172 176 195 c 2,9,-1
 225 375 l 1,10,-1
 172 375 l 2,11,12
 141 375 141 375 140 406 c 256,13,14
 140 438 140 438 172 438 c 2,15,-1
 241 438 l 1,16,-1
 285 602 l 2,17,18
 291 625 291 625 315 625 c 0,19,20
 347 625 347 625 347 595 c 0,21,22
 347 590 347 590 306 438 c 1,23,-1
 453 438 l 2,24,25
 484 438 484 438 484 406 c 256,26,27
 484 375 484 375 453 375 c 2,28,-1
 289 375 l 1,29,-1
 237 180 l 2,30,31
 232 163 232 163 232 147 c 0,32,33
 232 108 232 108 258 85 c 0,34,35
 282 62 282 62 321 62 c 0,36,37
 381 62 381 62 441 116 c 0,38,39
 450 125 450 125 462 125 c 0,40,41
 475 125 475 125 485 115.5 c 128,-1,42
 495 106 495 106 495 93 c 0,0,1
EndSplineSet
Validated: 1
EndChar

StartChar: u
Encoding: 117 117 85
Width: 500
GlyphClass: 2
Flags: W
LayerCount: 2
Fore
SplineSet
557 408 m 0,0,1
 557 403 557 403 500 190 c 0,2,3
 479 111 479 111 409.5 55.5 c 128,-1,4
 340 0 340 0 258 0 c 0,5,6
 189 0 189 0 144.5 43 c 128,-1,7
 100 86 100 86 100 155 c 0,8,9
 100 181 100 181 106 206 c 2,10,-1
 162 414 l 2,11,12
 168 438 168 438 192 438 c 0,13,14
 224 438 224 438 224 408 c 0,15,16
 224 403 224 403 222 398 c 2,17,-1
 167 190 l 2,18,19
 162 171 162 171 162 155 c 0,20,21
 162 113 162 113 189 87.5 c 128,-1,22
 216 62 216 62 258 62 c 0,23,24
 318 62 318 62 372 105 c 0,25,26
 424 147 424 147 440 206 c 2,27,-1
 495 414 l 2,28,29
 501 438 501 438 525 438 c 0,30,31
 557 438 557 438 557 408 c 0,0,1
EndSplineSet
Validated: 1
EndChar

StartChar: v
Encoding: 118 118 86
Width: 500
GlyphClass: 2
Flags: W
LayerCount: 2
Fore
SplineSet
578 407 m 0,0,1
 578 397 578 397 571 387 c 2,2,-1
 287 17 l 2,3,4
 275 0 275 0 261 -0 c 0,5,6
 260 0 260 0 259 -0 c 0,7,8
 234 0 234 0 227 30 c 2,9,-1
 141 399 l 2,10,11
 140 404 140 404 140 408 c 0,12,13
 140 438 140 438 172 438 c 0,14,15
 197 438 197 438 202 413 c 2,16,-1
 274 103 l 1,17,-1
 522 425 l 2,18,19
 532 437 532 437 546 438 c 0,20,21
 558 438 558 438 568 428.5 c 128,-1,22
 578 419 578 419 578 407 c 0,0,1
EndSplineSet
Validated: 1
EndChar

StartChar: w
Encoding: 119 119 87
Width: 500
GlyphClass: 2
Flags: W
LayerCount: 2
Fore
SplineSet
578 407 m 0,0,1
 578 399 578 399 574 391 c 2,2,-1
 363 20 l 2,3,4
 351 0 351 0 334 -0 c 0,5,6
 303 0 303 0 302 35 c 2,7,-1
 298 169 l 1,8,-1
 213 20 l 2,9,10
 201 0 201 0 184 -0 c 0,11,12
 153 0 153 0 152 35 c 2,13,-1
 140 405 l 1,14,15
 140 438 140 438 172 438 c 0,16,17
 202 438 202 438 203 407 c 2,18,-1
 211 143 l 1,19,-1
 294 289 l 1,20,-1
 290 405 l 1,21,22
 290 438 290 438 322 438 c 0,23,24
 352 438 352 438 353 407 c 2,25,-1
 361 143 l 1,26,-1
 519 422 l 2,27,28
 528 438 528 438 545 438 c 0,29,30
 558 438 558 438 568 429 c 128,-1,31
 578 420 578 420 578 407 c 0,0,1
EndSplineSet
Validated: 1
EndChar

StartChar: x
Encoding: 120 120 88
Width: 500
GlyphClass: 2
Flags: W
LayerCount: 2
Fore
SplineSet
578 405 m 0,0,1
 578 391 578 391 566 382 c 2,2,-1
 352 213 l 1,3,-1
 471 50 l 2,4,5
 478 41 478 41 478 31 c 0,6,7
 478 19 478 19 468 9.5 c 128,-1,8
 458 0 458 0 445 -0 c 0,9,10
 430 0 430 0 421 13 c 2,11,-1
 302 174 l 1,12,-1
 90 7 l 2,13,14
 81 0 81 0 71 -0 c 0,15,16
 58 0 58 0 48.5 9.5 c 128,-1,17
 39 19 39 19 39 32 c 0,18,19
 39 46 39 46 52 56 c 2,20,-1
 266 225 l 1,21,-1
 146 388 l 2,22,23
 139 397 139 397 140 407 c 0,24,25
 140 419 140 419 150 428.5 c 128,-1,26
 160 438 160 438 172 438 c 0,27,28
 187 438 187 438 197 425 c 2,29,-1
 315 263 l 1,30,-1
 527 431 l 2,31,32
 536 438 536 438 547 438 c 0,33,34
 560 438 560 438 569 428 c 128,-1,35
 578 418 578 418 578 405 c 0,0,1
EndSplineSet
Validated: 1
EndChar

StartChar: y
Encoding: 121 121 89
Width: 500
GlyphClass: 2
Flags: W
LayerCount: 2
Fore
SplineSet
547 408 m 0,0,1
 547 403 547 403 545 398 c 2,2,-1
 437 -8 l 2,3,4
 417 -83 417 -83 351 -135.5 c 128,-1,5
 285 -188 285 -188 208 -188 c 0,6,7
 158 -188 158 -188 119 -162 c 0,8,9
 79 -135 79 -135 64 -88 c 0,10,11
 62 -84 62 -84 62 -78 c 0,12,13
 62 -48 62 -48 95 -47 c 0,14,15
 115 -47 115 -47 124 -69 c 0,16,17
 146 -125 146 -125 208 -125 c 0,18,19
 264 -125 264 -125 313 -85 c 0,20,21
 360 -47 360 -47 376 8 c 0,22,23
 377 13 377 13 385 41 c 1,24,25
 324 0 324 0 258 0 c 0,26,27
 193 0 193 0 150.5 41 c 128,-1,28
 108 82 108 82 108 147 c 0,29,30
 108 172 108 172 114 195 c 2,31,-1
 172 414 l 2,32,33
 178 438 178 438 202 438 c 0,34,35
 234 438 234 438 234 408 c 0,36,37
 234 403 234 403 233 398 c 2,38,-1
 174 180 l 2,39,40
 170 166 170 166 170 152 c 0,41,42
 170 149 170 149 170 147 c 0,43,44
 170 108 170 108 195 85 c 0,45,46
 219 62 219 62 258 62 c 0,47,48
 314 62 314 62 363 101.5 c 128,-1,49
 412 141 412 141 426 195 c 2,50,-1
 485 414 l 2,51,52
 491 438 491 438 514 438 c 0,53,54
 547 438 547 438 547 408 c 0,0,1
EndSplineSet
Validated: 1
EndChar

StartChar: z
Encoding: 122 122 90
Width: 500
GlyphClass: 2
Flags: W
LayerCount: 2
Fore
SplineSet
578 406 m 0,0,1
 578 391 578 391 562 378 c 2,2,-1
 161 62 l 1,3,-1
 446 62 l 2,4,5
 477 62 477 62 477 31 c 256,6,7
 477 0 477 0 446 0 c 2,8,-1
 71 -0 l 2,9,10
 40 0 40 0 40 30 c 0,11,12
 40 47 40 47 56 59 c 2,13,-1
 456 375 l 1,14,-1
 172 375 l 2,15,16
 141 375 141 375 140 406 c 256,17,18
 140 438 140 438 172 438 c 2,19,-1
 546 438 l 2,20,21
 578 438 578 438 578 406 c 0,0,1
EndSplineSet
Validated: 1
EndChar

StartChar: braceleft
Encoding: 123 123 91
Width: 500
GlyphClass: 2
Flags: W
LayerCount: 2
Fore
SplineSet
677 769 m 0,0,1
 677 744 677 744 629 738 c 0,2,3
 557 730 557 730 531 717 c 0,4,5
 486 694 486 694 473 667 c 0,6,7
 451 615 451 615 388 479 c 0,8,9
 360 422 360 422 273 388 c 1,10,11
 310 361 310 361 310 324 c 0,12,13
 310 311 310 311 302 292 c 0,14,15
 297 281 297 281 247 191 c 0,16,17
 213 132 213 132 213 89 c 0,18,19
 213 61 213 61 274.5 50.5 c 128,-1,20
 336 40 336 40 336 19 c 0,21,22
 336 -12 336 -12 282 -12 c 0,23,24
 206 -12 206 -12 156.5 16 c 128,-1,25
 107 44 107 44 107 88 c 0,26,27
 107 101 107 101 115 120 c 0,28,29
 121 136 121 136 169 221 c 0,30,31
 204 282 204 282 204 324 c 0,32,33
 204 352 204 352 143 362 c 128,-1,34
 82 372 82 372 82 394 c 0,35,36
 82 419 82 419 130 425 c 0,37,38
 201 433 201 433 228 446 c 0,39,40
 273 468 273 468 285 496 c 0,41,42
 307 548 307 548 370 683 c 0,43,44
 394 731 394 731 468 767 c 0,45,46
 538 800 538 800 624 800 c 0,47,48
 677 800 677 800 677 769 c 0,0,1
EndSplineSet
Validated: 1
EndChar

StartChar: bar
Encoding: 124 124 92
Width: 500
GlyphClass: 2
Flags: W
LayerCount: 2
Fore
SplineSet
441 595 m 0,0,1
 441 590 441 590 440 586 c 2,2,-1
 238 -164 l 2,3,4
 232 -188 232 -188 209 -188 c 0,5,6
 177 -188 177 -188 177 -158 c 0,7,8
 177 -153 177 -153 178 -148 c 2,9,-1
 379 602 l 2,10,11
 385 625 385 625 408 625 c 0,12,13
 441 625 441 625 441 595 c 0,0,1
EndSplineSet
Validated: 1
EndChar

StartChar: braceright
Encoding: 125 125 93
Width: 500
GlyphClass: 2
Flags: W
LayerCount: 2
Fore
SplineSet
590 206 m 0,0,1
 590 180 590 180 542 175 c 0,2,3
 470 167 470 167 445 155 c 0,4,5
 400 132 400 132 386 104 c 0,6,7
 364 52 364 52 300 -83 c 0,8,9
 277 -131 277 -131 205.5 -165.5 c 128,-1,10
 134 -200 134 -200 47 -200 c 0,11,12
 -6 -200 -6 -200 -6 -169 c 0,13,14
 -6 -143 -6 -143 42 -138 c 0,15,16
 113 -130 113 -130 141 -116 c 0,17,18
 186 -94 186 -94 198 -67 c 0,19,20
 220 -15 220 -15 283 121 c 0,21,22
 311 178 311 178 398 212 c 1,23,24
 361 239 361 239 361 276 c 0,25,26
 361 289 361 289 369 308 c 0,27,28
 375 324 375 324 423 409 c 0,29,30
 458 470 458 470 458 512 c 0,31,32
 458 540 458 540 396.5 550 c 128,-1,33
 335 560 335 560 335 581 c 0,34,35
 335 612 335 612 389 612 c 0,36,37
 465 612 465 612 514.5 584 c 128,-1,38
 564 556 564 556 564 512 c 0,39,40
 564 499 564 499 556 480 c 0,41,42
 550 464 550 464 502 379 c 0,43,44
 467 318 467 318 467 276 c 0,45,46
 467 248 467 248 528.5 238 c 128,-1,47
 590 228 590 228 590 206 c 0,0,1
EndSplineSet
Validated: 1
EndChar

StartChar: asciitilde
Encoding: 126 126 94
Width: 500
GlyphClass: 2
Flags: W
LayerCount: 2
Fore
SplineSet
515 270 m 128,-1,1
 515 258 515 258 503 243 c 0,2,3
 419 140 419 140 364 140 c 2,4,5
 363 140 l 2,6,7
 347 140 347 140 304 179.5 c 128,-1,8
 261 219 261 219 255 219 c 0,9,10
 234 219 234 219 165 161 c 0,11,12
 146 145 146 145 136.5 145 c 128,-1,13
 127 145 127 145 116 155 c 256,14,15
 106 164 106 164 106 176 c 128,-1,16
 106 188 106 188 118 202 c 0,17,18
 183 281 183 281 255 281 c 0,19,20
 296 281 296 281 322 250 c 0,21,22
 362 202 362 202 370 202 c 0,23,24
 380 204 380 204 392 215 c 1,25,-1
 457 285 l 1,26,27
 466 300 466 300 480.5 300 c 128,-1,28
 495 300 495 300 505 291 c 256,29,0
 515 282 515 282 515 270 c 128,-1,1
EndSplineSet
Validated: 1
EndChar
